<svg width="100" height="86" viewBox="0 0 190 136" fill="none" xmlns="http://www.w3.org/2000/svg">
<path d="M85.7266 6.88059C81.7174 8.98262 80.6018 14.2549 83.4257 17.9076C86.9468 22.4907 94.5119 20.6988 95.8716 14.9786C97.3009 9.086 91.0605 4.08938 85.7266 6.88059Z" fill="white"/>
<path d="M143.11 6.74264C137.776 9.12034 137.323 16.1845 142.343 19.4582C146.875 22.4217 153.394 18.8379 153.394 13.3244C153.394 9.46493 149.978 6.08791 146.073 6.08791C145.202 6.08791 143.877 6.39804 143.11 6.74264Z" fill="white"/>
<path d="M94.5817 20.7675C91.8973 22.3182 90.3982 26.1777 91.3395 29.0033C91.5835 29.6925 93.0129 32.1736 94.5119 34.4824C96.8477 38.0317 97.1615 38.6864 96.6734 38.8587C96.3248 38.9621 94.9652 39.3412 93.6055 39.6513C88.3064 40.8574 82.4147 44.6824 79.2422 48.9209C75.5119 53.9175 73.9083 58.5006 73.6642 64.6688C73.4551 70.1134 74.0129 73.008 76.1395 77.2465C78.8936 82.6911 82.5541 86.3094 88.0275 88.9627C92.6642 91.2371 94.8257 91.7195 100.578 91.7195C104.727 91.7195 105.842 91.5816 108.073 90.9269C117.172 88.1012 123.727 81.2783 126.272 71.9742C127.213 68.4594 127.283 62.0499 126.446 58.8107C125.365 54.8134 123.273 51.2986 113.059 36.2398C101.798 19.6304 102.042 19.8716 98.1376 19.8716C96.4991 19.8716 95.6973 20.0783 94.5817 20.7675ZM105.075 53.9175C113.198 57.5013 115.36 67.3911 109.398 73.835C104.517 79.0729 96.9523 79.3485 91.6532 74.4209C85.7615 68.9763 86.4587 60.0513 93.1872 55.1925C96.3945 52.8492 101.415 52.3324 105.075 53.9175Z" fill="white"/>
<path d="M152.174 20.423C149.49 21.8703 148.165 24.0412 148.165 26.9703C148.165 29.1412 148.514 29.8649 152.07 35.1027C153.185 36.7568 154.092 38.273 154.092 38.4453C154.092 38.8243 153.778 38.9277 150.954 39.5135C149.908 39.7547 147.398 40.6851 145.376 41.65C142.169 43.2007 141.367 43.752 138.578 46.5432C136.242 48.8865 135.057 50.3682 133.976 52.4358C132.477 55.3304 131.571 57.6736 131.257 59.5689C131.152 60.1892 130.978 61.154 130.839 61.7398C130.594 62.9459 130.629 68.0459 130.873 70.0101C131.187 72.3533 132.094 75.2824 133.035 77.1777C137.95 86.8263 147.677 92.3053 158.972 91.7885C167.514 91.4094 174.521 87.6533 179.262 80.8993C184.91 72.8013 185.956 62.1189 181.877 54.0209C179.82 49.9892 160.925 22.1115 159.461 21.0433C158.38 20.2162 157.787 20.0439 155.695 19.9406C153.917 19.8716 152.941 20.0095 152.174 20.423ZM162.912 54.2621C165.561 55.5716 167.409 57.4324 168.699 60.1547C169.466 61.8088 169.605 62.5324 169.605 65.3581C169.605 68.3216 169.501 68.8729 168.525 70.906C166.677 74.7655 163.574 77.0743 159.356 77.729C153.917 78.5905 148.444 75.8682 146.073 71.0439C145.306 69.5277 145.202 68.8729 145.202 65.5304C145.202 62.05 145.272 61.602 146.143 59.948C148.723 55.1581 152.697 52.8493 157.996 53.0561C160.158 53.1594 161.099 53.4007 162.912 54.2621Z" fill="white"/>
<path d="M29.3193 39.169C18.5468 40.6508 9.97064 48.4386 7.11193 59.3278C6.2055 62.8771 6.27523 69.1487 7.25138 72.6981C9.69174 81.3129 15.8275 87.5845 24.7523 90.548C28.9009 91.9264 34.8275 92.3055 38.9413 91.444C45.7743 89.9967 52.2239 85.7582 55.6752 80.5203C56.4073 79.3832 57.0697 78.4528 57.1743 78.4528C57.2789 78.4872 58.5339 80.4514 59.9633 82.8636C62.7174 87.4811 63.7284 88.4805 66.378 89.1697C69.2018 89.9278 72.8275 88.4116 74.1523 85.9305C75.0238 84.242 75.2679 82.3122 74.8147 80.5548C74.2569 78.4183 55.2917 49.4379 52.8165 46.9224C47.1339 41.1332 37.6862 38.0319 29.3193 39.169ZM35.8385 53.2974C42.567 54.8481 46.855 61.0163 45.6697 67.4947C45.4257 68.7008 44.7633 70.5616 44.1706 71.6643C39.5688 80.2102 26.7394 79.9001 22.0679 71.1474C21.1963 69.4933 21.0917 68.9764 21.0917 65.7028C21.0917 62.5325 21.1963 61.8433 21.9982 60.1893C24.5431 54.7792 30.156 52.0224 35.8385 53.2974Z" fill="white"/>
<path d="M78.4752 106.468C77.6734 107.261 78.1266 107.571 79.9395 107.571C81.8569 107.571 82.6239 107.295 82.6239 106.606C82.6239 106.055 79.033 105.917 78.4752 106.468Z" fill="white"/>
<path d="M9.79632 109.191C9.62201 109.639 8.85503 111.43 8.0532 113.222C7.25136 115.014 6.62384 116.599 6.62384 116.772C6.62384 116.91 7.00733 117.047 7.4954 117.047C8.12292 117.047 8.47155 116.806 8.71558 116.186C9.02934 115.393 9.23852 115.324 10.9816 115.324C12.6899 115.324 12.9688 115.428 13.3174 116.186C13.5963 116.806 13.9798 117.047 14.6771 117.047H15.6183L13.8055 112.809C12.167 109.087 11.8532 108.605 11.0165 108.501C10.3193 108.398 10.0404 108.57 9.79632 109.191ZM11.4697 113.533C9.97063 113.774 9.79632 113.533 10.389 112.051L10.9468 110.707L11.5394 112.051C12.167 113.395 12.167 113.429 11.4697 113.533Z" fill="white"/>
<path d="M17.5009 109.225C16.6294 110.121 16.5248 111.43 17.1872 112.326C17.3963 112.671 18.4073 113.188 19.3486 113.532C20.6385 113.98 21.0917 114.325 21.0917 114.807C21.0917 115.703 19.8716 115.876 18.5468 115.186C17.6055 114.704 17.4661 114.704 16.9083 115.324C16.3156 115.979 16.3156 116.013 17.9541 116.737C19.8716 117.564 21.5798 117.426 22.6605 116.289C24.2294 114.635 23.1835 112.602 20.3945 111.913C19 111.568 18.233 110.845 18.7211 110.362C19.0697 110.052 21.022 110.121 21.5798 110.466C21.9284 110.707 22.2422 110.603 22.556 110.224C23.1486 109.397 23.1138 109.294 22.1376 108.846C20.5688 108.122 18.3376 108.329 17.5009 109.225Z" fill="white"/>
<path d="M25.5193 109.225C24.6477 110.155 24.5083 111.947 25.2404 112.568C25.5193 112.774 26.5303 113.222 27.4367 113.567C28.6569 113.98 29.1101 114.325 29.1101 114.807C29.1101 115.703 27.8899 115.876 26.4954 115.152C25.4495 114.635 25.345 114.635 24.9266 115.221C24.6128 115.634 24.578 115.979 24.822 116.255C25.345 116.909 27.8202 117.461 28.9706 117.22C30.0862 116.978 31.3761 115.566 31.3761 114.635C31.3761 113.567 30.1211 112.43 28.378 111.878C26.356 111.258 26.0771 110.397 27.855 110.224C28.4826 110.155 29.1798 110.259 29.389 110.466C29.6679 110.741 29.9468 110.672 30.4 110.259C31.2367 109.535 31.2018 109.294 30.156 108.846C28.5872 108.122 26.356 108.329 25.5193 109.225Z" fill="white"/>
<path d="M34.7926 108.984C32.666 110.121 32.0385 113.739 33.677 115.634C34.8624 117.047 36.8495 117.633 38.6624 117.082C40.7193 116.496 41.8348 114.98 41.8348 112.843C41.8348 111.293 41.6954 110.982 40.4752 109.776C39.2899 108.57 38.9413 108.432 37.4422 108.432C36.5009 108.467 35.3156 108.674 34.7926 108.984ZM39.1504 110.776C39.4642 111.12 39.8477 111.878 39.9523 112.499C40.1266 113.395 39.9871 113.739 39.0807 114.67C38.1743 115.566 37.7908 115.703 36.9193 115.531C36.3266 115.428 35.6293 115.083 35.3156 114.807C34.5486 114.015 34.5486 111.741 35.3504 110.879C36.222 109.949 38.3486 109.88 39.1504 110.776Z" fill="white"/>
<path d="M45.2863 109.225C42.0789 111.361 43.2991 116.496 47.1688 117.219C48.2844 117.426 49.923 117.013 50.7945 116.289C51.178 115.979 51.178 115.807 50.7248 115.324C50.2019 114.773 50.0624 114.773 49.1211 115.221C46.5064 116.53 44.1707 113.394 46.0532 111.051C46.8202 110.086 48.2844 109.845 49.5395 110.534C50.0624 110.776 50.3762 110.776 50.7597 110.465C51.4918 109.88 51.3523 109.535 50.2019 108.949C48.7028 108.191 46.6808 108.294 45.2863 109.225Z" fill="white"/>
<path d="M53.3395 112.705V117.047H54.211H55.1175L55.0129 112.809C54.9083 108.743 54.8734 108.605 54.1413 108.501C53.3395 108.398 53.3395 108.433 53.3395 112.705Z" fill="white"/>
<path d="M58.6037 112.533C57.6275 114.808 56.8257 116.737 56.8257 116.841C56.8257 116.944 57.2092 117.047 57.6972 117.047C58.3248 117.047 58.6734 116.806 58.9174 116.186C59.2312 115.393 59.4404 115.324 61.1835 115.324C62.8917 115.324 63.1706 115.428 63.5193 116.186C63.7633 116.772 64.1816 117.047 64.7743 117.047C65.2972 117.047 65.5413 116.875 65.4367 116.599C62.3339 109.156 61.9505 108.433 61.1835 108.433C60.5211 108.433 60.1376 109.018 58.6037 112.533ZM62.2991 113.498C62.1945 113.567 61.6367 113.601 61.0789 113.533L60.033 113.429L60.5908 112.085L61.1138 110.741L61.7761 112.051C62.1596 112.74 62.3688 113.395 62.2991 113.498Z" fill="white"/>
<path d="M68.8881 109.156C67.7376 110.052 66.9358 111.534 66.9358 112.809C66.9358 114.256 68.0165 116.048 69.2716 116.703C70.3174 117.254 70.3523 117.323 69.8642 118.012C69.5853 118.426 69.411 118.77 69.5156 118.77C69.5853 118.77 69.8991 118.874 70.2129 118.977C70.5963 119.115 70.8752 118.908 71.1193 118.288C71.3285 117.668 71.8165 117.323 72.4789 117.185C73.9431 116.875 74.8496 115.841 74.2569 115.152C73.8734 114.704 73.734 114.704 72.7927 115.186C69.9688 116.634 67.4239 113.567 69.411 111.051C69.934 110.362 70.422 110.155 71.433 110.155C72.1303 110.155 72.8973 110.328 73.1413 110.569C73.4899 110.879 73.6991 110.845 74.1872 110.362C74.745 109.811 74.745 109.742 73.9431 109.087C72.7927 108.157 70.1431 108.191 68.8881 109.156Z" fill="white"/>
<path d="M78.3706 111.43C75.7211 117.633 75.8606 117.047 76.8018 117.047C77.3596 117.047 77.778 116.737 78.022 116.186C78.3706 115.393 78.6147 115.324 80.5321 115.324C82.4495 115.324 82.6239 115.393 82.833 116.186C82.9725 116.806 83.2862 117.047 83.9138 117.047C84.9248 117.047 84.9248 117.047 82.7633 112.051C81.5431 109.19 81.1596 108.57 80.4624 108.501C79.7303 108.398 79.4862 108.743 78.3706 111.43ZM81.1596 112.051C81.7872 113.395 81.6826 113.601 80.3229 113.601C79.2422 113.601 79.1028 113.498 79.3119 112.981C79.4514 112.671 79.6606 112.12 79.7303 111.775C80.0092 110.913 80.7064 111.051 81.1596 112.051Z" fill="white"/>
<path d="M88.5156 108.949C86.389 110.086 85.6221 113.36 87.0166 115.255C88.7945 117.667 91.9322 117.909 94.0239 115.841C95 114.876 95.1744 114.463 95.1744 113.119C95.1744 111.12 94.4422 109.638 93.0826 108.949C91.8276 108.295 89.701 108.295 88.5156 108.949ZM92.734 110.845C94.4771 112.567 93.2569 115.462 90.8166 115.462C89.1432 115.462 88.0624 114.359 88.0624 112.705C88.0624 110.431 91.0955 109.225 92.734 110.845Z" fill="white"/>
<path d="M101.101 112.705V117.047H103.506C106.365 117.047 107.969 116.186 108.701 114.222C109.119 113.153 109.119 112.74 108.736 111.499C108.039 109.363 106.818 108.639 103.681 108.501L101.101 108.364V112.705ZM106.295 110.741C107.411 111.672 107.585 113.257 106.679 114.394C106.051 115.152 105.668 115.324 104.378 115.324H102.844V112.74V110.155H104.204C104.971 110.155 105.877 110.397 106.295 110.741Z" fill="white"/>
<path d="M111.211 112.74V117.047H114.349C117.451 117.047 117.486 117.047 117.486 116.186C117.486 115.359 117.417 115.324 115.046 115.324C112.675 115.324 112.606 115.29 112.606 114.463C112.606 113.636 112.71 113.601 114.697 113.601C116.684 113.601 116.789 113.567 116.789 112.74C116.789 111.913 116.684 111.878 114.697 111.878C112.71 111.878 112.606 111.844 112.606 111.017C112.606 110.19 112.675 110.155 115.046 110.155C117.417 110.155 117.486 110.121 117.486 109.294C117.486 108.433 117.451 108.433 114.349 108.433H111.211V112.74Z" fill="white"/>
<path d="M120.101 109.294C118.462 110.879 119.264 112.912 121.774 113.567C123.692 114.015 124.354 114.704 123.552 115.359C123.099 115.703 122.716 115.703 121.426 115.393C120.24 115.049 119.717 115.049 119.369 115.359C118.114 116.393 121.53 117.737 123.622 117.047C124.982 116.599 125.505 115.841 125.505 114.36C125.505 113.119 125.156 112.809 122.89 111.982C120.798 111.224 120.31 110.155 122.018 110.155C122.611 110.155 123.413 110.328 123.761 110.5C124.284 110.776 124.494 110.707 124.807 110.121C125.261 109.328 125.261 109.363 124.215 108.812C122.89 108.157 121.042 108.329 120.101 109.294Z" fill="white"/>
<path d="M127.596 112.74V117.047H128.468C129.235 117.047 129.339 116.91 129.339 115.876C129.339 114.773 129.409 114.704 130.943 114.532C133.558 114.256 134.883 112.292 134.011 109.983C133.628 109.053 131.919 108.433 129.688 108.433H127.596V112.74ZM132.268 110.914C132.861 111.844 132.094 112.705 130.594 112.843L129.339 112.947V111.534V110.121L130.594 110.224C131.361 110.293 132.059 110.569 132.268 110.914Z" fill="white"/>
<path d="M137.323 109.363C135.754 110.672 135.161 112.257 135.615 113.911C137.009 119.011 144.679 118.047 144.679 112.74C144.679 110.19 142.796 108.432 140.042 108.432C138.822 108.432 138.195 108.639 137.323 109.363ZM141.89 110.845C142.692 111.637 142.866 114.325 142.169 114.911C140.739 116.013 138.439 115.6 137.741 114.084C137.183 112.843 137.253 112.085 138.09 111.051C138.996 109.914 140.844 109.811 141.89 110.845Z" fill="white"/>
<path d="M146.666 108.674C146.527 108.777 146.422 110.741 146.422 112.981V117.047H147.468C148.444 117.047 148.514 116.978 148.514 115.669C148.514 114.532 148.618 114.291 149.211 114.291C149.629 114.291 150.257 114.842 150.815 115.669C151.582 116.841 151.93 117.047 152.906 117.047H154.092L153.081 115.669L152.07 114.256L152.906 113.429C154.127 112.223 154.092 110.121 152.837 109.156C152.105 108.57 151.407 108.433 149.385 108.433C148.026 108.433 146.771 108.536 146.666 108.674ZM151.651 110.672C151.861 110.948 151.965 111.465 151.826 111.878C151.651 112.43 151.303 112.568 150.048 112.568C148.514 112.568 148.514 112.568 148.514 111.362C148.514 110.19 148.549 110.155 149.873 110.155C150.605 110.155 151.407 110.362 151.651 110.672Z" fill="white"/>
<path d="M155.382 108.674C155.242 108.777 155.138 109.191 155.138 109.535C155.138 110.018 155.416 110.155 156.358 110.155H157.578V113.601V117.047H158.624H159.67V113.601V110.155H161.064C162.319 110.155 162.459 110.052 162.459 109.294C162.459 108.433 162.459 108.433 159.042 108.433C157.16 108.433 155.486 108.536 155.382 108.674Z" fill="white"/>
<path d="M164.097 108.674C163.958 108.777 163.853 110.741 163.853 112.981V117.047H164.899H165.945V112.74C165.945 108.467 165.945 108.433 165.143 108.433C164.69 108.433 164.202 108.536 164.097 108.674Z" fill="white"/>
<path d="M168.002 110.052C170.895 117.289 170.686 116.875 171.732 116.875C172.639 116.875 172.778 116.634 174.382 112.774C175.288 110.5 176.055 108.605 176.055 108.536C176.055 108.467 175.637 108.432 175.079 108.432C174.173 108.432 174.033 108.639 172.952 111.568L171.767 114.739L170.651 111.672C169.606 108.743 169.466 108.605 168.42 108.501L167.339 108.398L168.002 110.052Z" fill="white"/>
<path d="M177.589 112.464C176.648 114.67 175.846 116.599 175.776 116.772C175.706 116.91 176.055 117.047 176.543 117.047C177.171 117.047 177.589 116.772 177.868 116.186C178.217 115.428 178.461 115.324 180.273 115.324C182.086 115.324 182.261 115.393 182.47 116.186C182.644 116.875 182.923 117.047 183.725 117.047H184.771L184.248 115.738C181.25 108.605 181.18 108.433 180.204 108.433C179.367 108.433 179.158 108.743 177.589 112.464ZM180.762 112.085C181.424 113.67 181.459 113.601 180.239 113.601C179.681 113.601 179.193 113.498 179.193 113.36C179.193 113.05 179.995 110.845 180.134 110.845C180.169 110.845 180.483 111.396 180.762 112.085Z" fill="white"/>
<path d="M41.7651 127.109C39.4293 132.657 39.5339 132.209 40.5798 132.209C41.3119 132.209 41.5908 131.968 41.8697 131.176C42.2183 130.211 42.3578 130.142 44.1706 130.142C45.9835 130.142 46.0881 130.211 46.4715 131.176C46.7853 131.968 47.0642 132.209 47.8312 132.209C48.3541 132.209 48.8073 132.106 48.7725 131.934C48.7725 131.796 47.9358 129.832 46.9248 127.557C45.3559 123.974 45.0073 123.422 44.2404 123.319C43.4385 123.215 43.2642 123.526 41.7651 127.109ZM44.7982 127.04C45.4954 128.384 45.4954 128.419 44.2752 128.419C43.7174 128.419 43.2293 128.35 43.2293 128.281C43.2293 128.005 43.9963 126.007 44.1358 126.007C44.2055 126.007 44.4844 126.455 44.7982 127.04Z" fill="white"/>
<path d="M60.7303 127.489C59.7193 129.832 58.9174 131.83 58.9174 131.968C58.9174 132.106 59.266 132.209 59.7193 132.209C60.2771 132.209 60.6257 131.899 60.9046 131.176C61.2881 130.211 61.3926 130.142 63.2752 130.142C65.1229 130.142 65.2624 130.176 65.5761 131.176C65.855 131.934 66.1688 132.209 66.7963 132.209C67.2495 132.209 67.633 132.106 67.633 132.003C67.633 131.899 66.8312 129.901 65.8202 127.523C63.3798 121.768 63.1358 121.768 60.7303 127.489ZM64.0422 127.316L64.4954 128.419H63.2404C62.1945 128.419 62.0202 128.316 62.2293 127.799C62.3688 127.489 62.578 126.937 62.6477 126.593C62.9266 125.731 63.5193 126.041 64.0422 127.316Z" fill="white"/>
<path d="M106.47 123.595C106.086 123.732 105.319 124.353 104.831 124.973C103.158 126.937 103.75 130.555 105.982 131.693C107.446 132.451 109.538 132.347 110.653 131.486C111.49 130.831 111.56 130.693 111.106 130.245C110.723 129.832 110.444 129.832 109.886 130.107C108.178 131.003 106.261 130.383 105.668 128.764C104.796 126.248 107.55 124.008 109.712 125.49C110.339 125.938 110.479 125.938 110.862 125.49C112.083 124.008 108.875 122.63 106.47 123.595Z" fill="white"/>
<path d="M120.903 123.491L117.835 123.629V127.902V132.209H120.972C124.075 132.209 124.11 132.209 124.11 131.348C124.11 130.521 124.04 130.487 121.635 130.487H119.194L119.299 129.522C119.404 128.626 119.508 128.591 121.426 128.488C123.134 128.384 123.413 128.281 123.413 127.73C123.413 127.109 123.169 127.041 121.321 127.041H119.229V126.007V124.973H121.67C124.04 124.973 124.11 124.939 124.11 124.112C124.11 123.629 124.075 123.284 124.04 123.319C123.971 123.353 122.576 123.457 120.903 123.491Z" fill="white"/>
<path d="M153.673 123.801C152.628 124.353 152.139 125.559 152.488 126.834C152.662 127.488 153.185 127.868 154.789 128.453C156.323 129.005 156.881 129.384 156.881 129.832C156.881 130.59 155.347 130.728 153.952 130.107C153.255 129.797 152.941 129.797 152.523 130.142C151.756 130.762 151.861 131.038 153.185 131.658C154.998 132.52 157.09 132.382 158.101 131.348C159.774 129.728 158.972 127.764 156.393 127.041C154.684 126.558 153.883 125.938 154.266 125.283C154.51 124.904 156.044 125.007 157.299 125.49C157.683 125.628 157.996 125.49 158.275 124.973C158.624 124.353 158.519 124.215 157.439 123.767C155.905 123.112 154.894 123.147 153.673 123.801Z" fill="white"/>
<path d="M32.7706 127.902V132.209H33.8165C34.7926 132.209 34.8624 132.141 34.8624 130.831C34.8624 129.487 34.8972 129.453 36.0826 129.453C37.6862 129.453 38.8715 128.867 39.3596 127.833C39.9871 126.524 39.8128 125.352 38.8715 124.456C38.1394 123.698 37.7211 123.595 35.3853 123.595H32.7706V127.902ZM36.7798 125.318C37.5119 125.593 37.6862 125.869 37.5816 126.627C37.4771 127.42 37.3027 127.557 36.1871 127.661L34.8624 127.764V126.386C34.8624 124.87 35.1413 124.697 36.7798 125.318Z" fill="white"/>
<path d="M50.2018 127.902V132.209H51.2477C52.2239 132.209 52.2936 132.141 52.2936 130.831C52.2936 129.625 52.3982 129.453 53.0954 129.453C53.6184 129.453 54.1413 129.866 54.734 130.831C55.3963 131.899 55.8147 132.209 56.5468 132.209C57.1046 132.209 57.5229 132.141 57.5229 132.037C57.5229 131.934 57.1046 131.245 56.6165 130.487L55.6752 129.108L56.6165 128.384C57.8367 127.42 57.8716 125.628 56.6514 124.456C55.8844 123.698 55.5358 123.595 52.9908 123.595H50.2018V127.902ZM54.8734 125.318C56.6862 125.972 55.7798 127.73 53.6184 127.73C52.2936 127.73 52.2936 127.73 52.2936 126.351C52.2936 125.111 52.3982 124.973 53.1303 124.973C53.6184 124.973 54.3853 125.111 54.8734 125.318Z" fill="white"/>
<path d="M73.2111 127.902V132.209H75.3377C78.2661 132.209 79.7652 131.451 80.6019 129.556C81.4386 127.661 81.0202 125.766 79.4514 124.491C78.5101 123.698 78.0569 123.595 75.7909 123.595H73.2111V127.902ZM78.6147 126.007C79.4166 126.834 79.4863 128.901 78.7193 129.659C78.4056 129.97 77.4294 130.314 76.5578 130.383L74.9542 130.59V128.005C74.9542 126.593 75.0588 125.318 75.1982 125.18C75.6166 124.766 77.8826 125.318 78.6147 126.007Z" fill="white"/>
<path d="M82.9725 127.902V132.209H86.2845C89.5964 132.209 89.5964 132.209 89.5964 131.348C89.5964 130.521 89.5267 130.487 87.1212 130.487H84.6808L84.7854 129.522C84.89 128.626 84.9946 128.591 86.912 128.488C88.5854 128.384 88.8991 128.281 88.8991 127.73C88.8991 127.178 88.5854 127.075 86.912 126.972C85.0294 126.868 84.89 126.799 84.89 126.007C84.89 125.18 84.9946 125.145 87.2606 125.042C89.3175 124.939 89.5964 124.87 89.5964 124.284C89.5964 123.664 89.3524 123.595 86.2845 123.595H82.9725V127.902Z" fill="white"/>
<path d="M91.6881 127.902C91.6881 131.968 91.723 132.209 92.3854 132.209C92.978 132.209 93.0826 131.968 93.0826 130.487V128.764H95.1743C97.1615 128.764 97.2661 128.729 97.2661 127.902C97.2661 127.075 97.1615 127.041 95.1395 127.041C93.0477 127.041 93.0477 127.041 93.1523 126.076C93.2569 125.18 93.3266 125.145 95.6276 125.042C97.6844 124.939 97.9633 124.87 97.9633 124.284C97.9633 123.664 97.7193 123.595 94.8257 123.595H91.6881V127.902Z" fill="white"/>
<path d="M100.055 127.902C100.055 131.968 100.09 132.209 100.752 132.209C101.415 132.209 101.45 131.968 101.45 127.902C101.45 123.836 101.415 123.595 100.752 123.595C100.09 123.595 100.055 123.836 100.055 127.902Z" fill="white"/>
<path d="M113.651 127.902C113.651 131.968 113.686 132.209 114.349 132.209C115.011 132.209 115.046 131.968 115.046 127.902C115.046 123.836 115.011 123.595 114.349 123.595C113.686 123.595 113.651 123.836 113.651 127.902Z" fill="white"/>
<path d="M126.202 127.902C126.202 131.934 126.237 132.209 126.899 132.209C127.492 132.209 127.562 131.934 127.666 129.349L127.771 126.524L129.967 129.349C131.675 131.555 132.338 132.209 133 132.209H133.872V127.902V123.595H133C132.163 123.595 132.129 123.664 132.129 126.007C132.129 127.316 131.989 128.419 131.815 128.419C131.64 128.419 130.664 127.316 129.653 126.007C128.294 124.284 127.562 123.595 127.004 123.595C126.202 123.595 126.202 123.664 126.202 127.902Z" fill="white"/>
<path d="M135.406 124.112C135.092 124.904 135.58 125.318 136.87 125.318H138.055V128.764V132.209H138.927H139.798V128.764V125.318H141.193C142.448 125.318 142.587 125.214 142.587 124.456V123.595H139.101C136.347 123.595 135.545 123.698 135.406 124.112Z" fill="white"/>
<path d="M143.982 127.902V132.209H147.294C150.606 132.209 150.606 132.209 150.606 131.348C150.606 130.521 150.536 130.487 148.305 130.487H146.039L146.143 129.522C146.248 128.626 146.352 128.591 148.27 128.488C149.978 128.384 150.257 128.281 150.257 127.73C150.257 127.109 150.013 127.041 148.165 127.041H146.073V126.007V124.973H148.339C150.362 124.973 150.606 124.904 150.606 124.284C150.606 123.629 150.362 123.595 147.294 123.595H143.982V127.902Z" fill="white"/>
</svg>
