<svg width="69" height="74" viewBox="0 0 119 124" fill="none" xmlns="http://www.w3.org/2000/svg">
<g clip-path="url(#clip0_39_58)">
<path d="M0 62V124H59.5H119V62V-7.62939e-06H59.5H0V62ZM90.6003 14.7965C91.001 15.5408 91.3843 16.1581 91.4714 16.1581C91.5411 16.1581 92.2206 16.031 92.9698 15.8858C93.719 15.7406 94.3637 15.6679 94.416 15.7042C94.4682 15.7587 93.9978 16.3215 93.4054 16.9569L92.2903 18.1189L93.0221 19.5168C93.4228 20.2975 93.719 20.9692 93.6668 21.0056C93.6319 21.0419 92.9698 20.7514 92.2032 20.352L90.7919 19.6076L89.7466 20.8422C89.1716 21.4958 88.6663 22.0041 88.6141 21.9496C88.5618 21.9133 88.6315 21.169 88.7534 20.2975L88.9625 18.7362L87.6035 18.0463C86.8543 17.665 86.2445 17.3019 86.2445 17.2293C86.2445 17.1567 86.8195 17.0114 87.5164 16.9025C88.1959 16.7754 88.8928 16.6302 89.0322 16.5394C89.2064 16.4486 89.3632 15.8676 89.5026 14.9599C89.6072 14.1792 89.7117 13.5075 89.7117 13.4712C89.764 13.3078 89.9731 13.5982 90.6003 14.7965ZM100.897 18.0463C100.932 18.1007 101.559 18.0099 102.274 17.8647C102.988 17.7195 103.702 17.6105 103.842 17.6105C103.981 17.6105 103.581 18.137 102.971 18.8088L101.838 19.9889L102.587 21.4594C103.006 22.2583 103.319 22.9482 103.284 22.9663C103.249 23.0026 102.605 22.7122 101.838 22.349L100.444 21.6591L99.2422 22.8574C98.0748 24.0375 98.0574 24.0375 98.1445 23.4747C98.2142 23.1479 98.3013 22.3672 98.371 21.7499L98.4755 20.6061L97.0643 19.8981C96.2977 19.4987 95.6878 19.1537 95.7227 19.1174C95.7575 19.0811 96.437 18.9359 97.2211 18.7906C98.0225 18.6454 98.7369 18.4275 98.8066 18.3186C98.8589 18.2097 98.9808 17.5379 99.0505 16.8299C99.1202 16.1037 99.2073 15.4501 99.2596 15.3593C99.3119 15.2867 99.6952 15.8313 100.096 16.5938C100.497 17.3382 100.845 18.0099 100.897 18.0463ZM81.4531 18.1733L82.0455 19.3716L83.2303 19.1356C85.4082 18.6999 85.4256 18.718 84.1537 20.0615L83.0212 21.2597L83.7704 22.694C84.1886 23.4928 84.4325 24.1464 84.328 24.1464C84.2234 24.1464 83.5788 23.8559 82.8993 23.4928L81.6622 22.8392L80.5646 23.983C79.9548 24.6184 79.4146 25.0723 79.3624 25.0179C79.3101 24.9634 79.3449 24.4006 79.4495 23.7652C79.7283 21.8589 79.7631 21.9496 78.2996 21.1871C77.5678 20.8059 77.0277 20.4246 77.1148 20.352C77.2019 20.2612 77.864 20.0978 78.5783 19.9889C79.2927 19.8618 79.9025 19.7529 79.9373 19.7165C79.9722 19.6802 80.0767 19.0448 80.1638 18.3004C80.2684 17.5742 80.3903 16.848 80.4252 16.7028C80.5297 16.376 80.6168 16.5031 81.4531 18.1733ZM91.454 25.1631C93.719 32.407 94.9909 40.8129 95.0083 48.7467C95.0258 53.3037 94.8167 55.918 94.1546 59.313C93.2834 63.8881 91.9244 66.8656 89.5549 69.371C88.3353 70.66 87.8126 71.0776 86.593 71.6767C85.7741 72.0761 84.5022 72.5482 83.7704 72.6934C82.2546 73.0202 78.8397 73.0928 79.0139 72.8023C79.0662 72.7116 79.3972 72.6208 79.7283 72.6208C80.5646 72.6208 82.3243 71.9854 83.3348 71.3136C84.4848 70.5511 85.4605 69.3165 85.9135 68.1001C86.471 66.557 86.3316 64.4328 85.5824 62.7444C84.781 60.947 83.7007 59.4764 81.941 57.7335C80.2161 56.0088 78.7351 54.9195 74.1354 51.9239C70.2501 49.4003 68.9433 48.4018 67.6714 46.9675C66.3124 45.4425 65.8072 44.2442 65.7201 42.3379C65.6329 40.831 65.9814 38.7613 66.4693 37.781C66.6783 37.3634 66.6957 37.3815 66.8003 38.2348C66.9919 39.6328 67.6018 41.3031 68.2813 42.229C70.5288 45.3154 74.9717 46.0597 79.0488 44.0445C80.3729 43.3909 80.6691 43.1004 79.8502 43.282C79.5714 43.3365 78.8919 43.3183 78.3344 43.2094C71.9924 42.1201 70.6334 33.1695 76.3656 30.2284C78.6306 29.0665 81.0873 29.2117 83.1083 30.646C84.8158 31.8624 85.7915 33.5871 86.018 35.8202L86.1225 36.8732L86.8195 35.6386C88.9277 31.8987 90.2518 27.2328 90.2518 23.511C90.2518 22.5488 90.3041 22.1312 90.4261 22.2583C90.5306 22.3672 90.9836 23.6562 91.454 25.1631ZM93.9455 25.6896C94.7993 27.2873 96.3499 30.0468 97.3605 31.8261L99.2247 35.0758L99.3293 33.9139C99.4861 32.0621 100.148 31.2269 101.559 31.0817C105.288 30.7186 109.278 37.672 107.448 41.3394C107.117 41.9748 106.368 42.4832 105.724 42.4832C105.375 42.5013 105.41 42.5376 105.933 42.8463C107.448 43.6996 108.72 43.4454 109.888 42.0474L110.515 41.3031L110.41 42.5739C110.132 46.3139 108.564 51.9239 106.699 55.918C104.713 60.1663 102.605 63.1982 99.4164 66.3936C94.9561 70.8597 90.1996 73.3288 84.0318 74.3455C82.969 74.5271 83.1083 74.1821 84.206 73.9098C85.5998 73.583 88.161 72.1851 89.4852 71.0231C92.3252 68.5359 94.3811 64.7233 95.5485 59.8214C96.2977 56.6624 96.437 54.8832 96.437 48.9283C96.437 40.1048 95.8272 36.147 92.9698 26.2887C92.3426 24.1101 91.8199 22.2764 91.8199 22.2038C91.8373 21.9133 92.3949 22.8392 93.9455 25.6896ZM25.281 55.7728C26.7097 56.2085 27.7028 57.8788 27.7028 59.8577V60.6384H26.7794H25.8559L25.6469 59.4946C25.4029 58.1329 24.8977 57.552 23.9045 57.552C23.0857 57.552 22.5107 57.9695 22.1971 58.7502C21.5524 60.366 22.1971 61.8729 24.3924 63.8155C27.2498 66.3391 27.8073 67.3739 27.6679 69.8794C27.5634 71.5859 27.1104 72.6026 26.0999 73.2925C25.49 73.7283 25.159 73.8009 23.9742 73.8553C22.772 73.9098 22.441 73.8553 21.7789 73.4922C20.4722 72.7842 19.8624 71.4952 19.8624 69.3892V68.2635H20.8206H21.7789V69.1713C21.7789 70.8597 22.4933 71.8946 23.6432 71.8946C24.8977 71.8946 25.612 71.0413 25.612 69.5163C25.612 68.3725 25.0196 67.2832 23.8174 66.212C21.5524 64.1786 20.8903 63.4706 20.4373 62.472C20.0192 61.6006 19.9495 61.2375 19.9669 59.9121C19.9843 57.7335 20.629 56.5171 22.1274 55.8454C22.8591 55.5186 24.3575 55.4823 25.281 55.7728ZM74.8846 55.8454C75.8255 56.2448 76.6095 57.1344 76.9231 58.1148C77.1671 58.841 77.2019 59.9121 77.1496 65.1227L77.0974 71.2591L76.6269 72.1124C75.9474 73.2925 75.1634 73.7464 73.5953 73.8553C71.9575 73.9643 70.9818 73.6012 70.1455 72.5845C69.2047 71.4589 69.135 70.769 69.2047 64.1786C69.257 58.6413 69.2744 58.3326 69.6403 57.6427C70.1281 56.6987 70.7205 56.1359 71.5568 55.8272C72.4454 55.4823 74.0832 55.5004 74.8846 55.8454ZM8.18887 64.7233V73.7101H7.2306H6.27233V64.7233V55.7365H7.2306H8.18887V64.7233ZM14.4786 61.6732L16.2906 67.61L16.3429 61.6732L16.3777 55.7365H17.336H18.2943V64.7233V73.7101H17.2141H16.1164L14.0256 66.793L11.9348 59.8758L11.8826 66.793L11.8477 73.7101H10.9766H10.1054V64.7233V55.7365H11.3773H12.6492L14.4786 61.6732ZM36.937 56.735V57.7335H35.369H33.8009V65.7218V73.7101H32.7555H31.7101V65.7218V57.7335H30.142H28.5739V56.735V55.7365H32.7555H36.937V56.735ZM40.2474 64.7233V73.7101H39.202H38.1567V64.7233V55.7365H39.202H40.2474V64.7233ZM49.8302 56.735V57.7335H48.175H46.5198V65.7218V73.7101H45.4744H44.429V65.7218V57.7335H42.8609H41.2928V56.735V55.7365H45.5615H49.8302V56.735ZM52.9663 63.1075C52.9663 68.1728 53.0186 70.5874 53.158 70.8597C53.6807 71.9127 55.1094 72.2395 55.9805 71.5315C56.7123 70.9324 56.7994 69.9338 56.7994 62.5447V55.7365H57.7751H58.7334L58.6811 63.3979C58.6288 71.0594 58.6288 71.0776 58.2107 71.949C57.566 73.3107 56.7471 73.7827 54.9003 73.8553C53.5936 73.8917 53.3148 73.8553 52.705 73.4922C51.9209 73.0202 51.3111 72.1669 51.0498 71.1865C50.9452 70.8053 50.8755 67.5373 50.8755 63.1256V55.7365H51.9209H52.9663V63.1075ZM68.1245 56.735V57.7335H66.5564H64.9883V65.7218V73.7101H63.9429H62.8975V65.7218V57.7335H61.3294H59.7613V56.735V55.7365H63.9429H68.1245V56.735ZM20.6987 77.8132C22.1622 78.4486 22.9985 79.9373 22.9985 81.9162V82.7877H21.6047H20.2108V81.8799C20.2108 81.2082 20.1237 80.8814 19.8624 80.6091C19.5139 80.246 18.7299 80.137 18.364 80.3912C18.0329 80.6091 17.7716 81.299 17.7716 81.9162C17.789 83.0056 18.3988 83.9859 20.176 85.8196C21.2562 86.9271 22.0925 87.9801 22.4061 88.5974C22.8591 89.5051 22.9114 89.7593 22.9114 91.4114C22.9114 93.5719 22.563 94.4615 21.3956 95.2603C20.7684 95.7142 20.4722 95.7687 19.0958 95.8231C17.7019 95.8776 17.4231 95.8413 16.7262 95.4419C15.5066 94.7701 14.9665 93.7171 14.8619 91.7927L14.7574 90.2313H16.1861H17.5974V91.3206C17.5974 92.6278 17.9632 93.1362 18.8693 93.1362C19.7056 93.1362 20.1063 92.6097 20.0889 91.5204C20.0714 90.2858 19.6881 89.6504 17.7716 87.6896C16.8482 86.7455 15.8899 85.6018 15.646 85.1479C14.7574 83.5321 14.618 81.2627 15.3324 79.6105C15.9247 78.1944 17.0572 77.5408 18.9564 77.5227C19.5662 77.5227 20.3328 77.6498 20.6987 77.8132ZM40.1255 78.1763C40.5785 78.5031 41.0141 79.0477 41.2928 79.6105L41.7284 80.5183V86.7818C41.7284 92.8457 41.711 93.0635 41.3451 93.7716C40.5611 95.3148 39.5331 95.8594 37.4946 95.8594C35.7174 95.8594 34.8114 95.4056 34.0622 94.1347L33.5395 93.2632L33.4873 87.0905C33.435 80.2097 33.4873 79.7195 34.5675 78.6302C35.4212 77.7587 36.2575 77.5045 37.9476 77.5772C39.202 77.6316 39.4808 77.7042 40.1255 78.1763ZM108.633 77.9947C109.713 78.5757 110.323 79.7558 110.428 81.4261L110.515 82.7877H109.191H107.884L107.762 81.8618C107.623 80.7725 107.187 80.246 106.473 80.246C105.811 80.246 105.236 80.9722 105.236 81.8255C105.236 82.9148 105.724 83.7136 107.745 85.8741C110.062 88.3613 110.463 89.1783 110.463 91.3933C110.463 94.4978 109.226 95.8413 106.386 95.8594C103.581 95.8594 102.291 94.3889 102.274 91.1754V90.2313H103.668H105.061V91.3206C105.061 92.6278 105.427 93.1362 106.333 93.1362C107.048 93.1362 107.483 92.6823 107.623 91.7927C107.779 90.7215 107.065 89.487 105.131 87.5262C102.971 85.3294 102.448 84.2764 102.448 82.1704C102.448 81.3897 102.553 80.4094 102.657 79.9918C102.918 79.1022 103.964 77.9766 104.748 77.7224C105.724 77.4138 107.849 77.559 108.633 77.9947ZM13.7643 79.0659V80.4275H11.4122H9.06003V82.7877V85.1479H10.8895H12.7189V86.5095V87.8712H10.8895H9.06003V90.4129V92.9546H11.4122H13.7643V94.3162V95.6779H10.0183H6.27233V86.6911V77.7042H10.0183H13.7643V79.0659ZM30.0201 77.9039C30.3859 78.0129 30.9958 78.376 31.3791 78.7391C32.3896 79.6832 32.6335 80.7543 32.5464 83.7499C32.4767 86.6548 32.1631 87.5444 30.9958 88.3613C30.3511 88.7971 30.0549 88.8697 28.7133 88.9242L27.1801 88.9968V92.3373V95.6779H25.7862H24.3924V86.6911V77.7042H26.8839C28.2429 77.7042 29.6542 77.795 30.0201 77.9039ZM49.987 78.2489C51.1717 78.957 51.4679 79.7195 51.5376 82.243C51.6073 84.6214 51.4505 85.4202 50.6665 86.3461L50.1264 86.9815L50.5097 87.2539C51.3111 87.853 51.4679 88.4884 51.5899 91.8653C51.6422 93.6082 51.7641 95.1877 51.8338 95.3511C51.9384 95.6416 51.8164 95.6779 50.4748 95.6779C49.29 95.6779 48.9764 95.6234 48.8893 95.3874C48.837 95.224 48.7848 93.9713 48.7848 92.6097C48.7848 91.2117 48.6977 89.8501 48.5931 89.5051C48.3666 88.8515 47.6 88.4158 46.694 88.4158H46.1713V92.0469V95.6779H44.7775H43.3836V86.6729V77.6679L46.3107 77.7406C49.0287 77.795 49.2726 77.8313 49.987 78.2489ZM60.981 79.0659V80.4275H59.5871H58.1933V88.0527V95.6779H56.7123H55.2313V88.0527V80.4275H53.8375H52.4436V79.0659V77.7042H56.7123H60.981V79.0659ZM69.5183 79.0659V80.4275H67.1662H64.8141V82.7877V85.1479H66.6435H68.4729V86.5095V87.8712H66.6435H64.8141V90.4129V92.9546H67.1662H69.5183V94.3162V95.6779H65.7723H62.0264V86.6911V77.7042H65.7723H69.5183V79.0659ZM79.6411 83.7318C80.1638 87.0542 80.5994 89.6141 80.6343 89.4143C80.6691 89.2146 81.0524 86.5095 81.5054 83.4231L82.3243 77.795L84.2931 77.7406L86.2445 77.6861V86.6911V95.6779H84.9378H83.631L83.5962 89.9045L83.5439 84.1493L82.7773 89.4143C82.3766 92.301 81.9933 94.8972 81.941 95.1695C81.8539 95.6779 81.8365 95.6779 80.4949 95.6779H79.1359L78.9268 94.4433C78.8223 93.7716 78.4389 91.3933 78.0731 89.142L77.3936 85.0571L77.3761 90.3584L77.3587 95.6779H76.052H74.7452V86.6911V77.7042H76.7315H78.7003L79.6411 83.7318ZM94.3463 78.4668C94.416 78.9025 95.0258 82.9148 95.7227 87.4173L96.9772 95.5871L95.6007 95.6416C94.8341 95.6779 94.172 95.6597 94.1372 95.6053C94.0849 95.569 93.963 94.8791 93.841 94.0984L93.6319 92.6823L92.0464 92.6278L90.4609 92.5734L90.2344 94.1347L90.0253 95.6779H88.6837C87.377 95.6779 87.3422 95.6597 87.4119 95.2603C87.5512 94.3889 90.0776 77.8495 90.0776 77.7769C90.0776 77.7406 91.0184 77.7042 92.1509 77.7042H94.2417L94.3463 78.4668ZM100.88 86.6911V95.6779H99.4861H98.0922V86.6911V77.7042H99.4861H100.88V86.6911Z" fill="white"/>
<path d="M72.097 57.9151C71.2781 58.5687 71.2432 58.9136 71.2955 65.0682L71.3478 70.8416L71.9227 71.3681C72.881 72.2577 74.3097 72.0217 74.8324 70.8779C75.0763 70.3514 75.0937 69.4618 75.0589 64.4328L75.0066 58.605L74.4317 58.0785C73.7522 57.443 72.759 57.3704 72.097 57.9151Z" fill="white"/>
<path d="M36.7802 80.591C36.2576 81.1356 36.2227 81.7348 36.275 87.2539C36.3272 91.9925 36.3447 92.41 36.6583 92.755C36.8848 93.0091 37.1984 93.1362 37.6514 93.1362C38.8536 93.1362 38.8536 93.0999 38.8536 86.6548C38.8536 81.2083 38.8362 80.9541 38.5051 80.6091C38.0696 80.1553 37.2158 80.1371 36.7802 80.591Z" fill="white"/>
<path d="M27.1801 83.3325V86.2373H28.1035C29.5148 86.2373 29.6194 86.0558 29.6194 83.3688C29.6194 80.7 29.48 80.4276 28.0513 80.4276H27.1801V83.3325Z" fill="white"/>
<path d="M46.1713 83.0601V85.6926H46.9728C47.4084 85.6926 47.9136 85.62 48.0879 85.5111C48.5234 85.2569 48.7848 84.3673 48.7848 83.0601C48.7848 81.7529 48.5234 80.8633 48.0879 80.6092C47.9136 80.5002 47.4084 80.4276 46.9728 80.4276H46.1713V83.0601Z" fill="white"/>
<path d="M91.9942 82.0614C91.9767 82.1159 91.7154 83.8951 91.4018 86.0011L90.8442 89.8682H92.0464H93.2486L93.1441 89.3598C93.0918 89.0875 92.8479 87.3991 92.604 85.6017C92.1858 82.5516 92.0639 81.8436 91.9942 82.0614Z" fill="white"/>
<path d="M92.3252 17.7377C92.0987 18.0282 92.1161 18.0463 92.3949 17.8103C92.5517 17.6832 92.6911 17.538 92.6911 17.5017C92.6911 17.3564 92.5517 17.4472 92.3252 17.7377Z" fill="#0599B1"/>
<path d="M89.764 14.3425C89.8163 14.6511 89.7814 14.9416 89.6943 14.996C89.6246 15.0505 89.5549 15.3592 89.5549 15.7041C89.5549 16.5211 89.2239 16.8297 88.1262 16.975C86.6627 17.1747 86.6453 17.3018 87.9868 17.9735C89.1019 18.5363 89.2065 18.6452 89.1368 19.0628C89.0845 19.317 88.9974 19.9161 88.9277 20.4063C88.8231 21.2414 88.8231 21.2777 89.1716 21.078C89.3633 20.9691 89.7814 20.5515 90.1125 20.134L90.7048 19.3896L91.9767 20.0613C93.266 20.7331 93.6319 20.8057 93.1267 20.2611C92.9699 20.0977 92.9002 19.9706 92.9524 19.9706C93.0221 19.9706 92.8653 19.6075 92.6214 19.1717C92.3775 18.7179 92.1684 18.2458 92.1684 18.1006C92.1684 17.9553 92.604 17.3925 93.1267 16.8479L94.1024 15.8493L92.9176 16.0854C91.123 16.4485 91.1927 16.4848 90.5132 15.0687C90.1821 14.3606 89.8511 13.7978 89.7988 13.7978C89.7291 13.7978 89.7291 14.052 89.764 14.3425Z" fill="#0097AF"/>
<path d="M99.3468 16.2125C99.399 16.4848 99.3642 16.7571 99.2945 16.8116C99.2074 16.8661 99.1377 17.1202 99.1377 17.3926C99.1377 18.5545 99.0157 18.6634 97.6393 18.8994C96.9249 19.0084 96.35 19.1718 96.35 19.2262C96.35 19.2988 96.8727 19.6075 97.5347 19.898C98.6498 20.4245 98.7021 20.4608 98.6847 21.0781C98.6673 21.423 98.615 21.8224 98.5627 21.9677C98.5104 22.1129 98.4408 22.5123 98.3885 22.8391L98.3188 23.4382L99.2771 22.4397C99.8172 21.8769 100.305 21.423 100.392 21.423C100.479 21.423 101.002 21.659 101.577 21.9677C102.152 22.2581 102.657 22.5123 102.692 22.5123C102.814 22.5123 102.361 21.4412 102.082 21.0781C101.943 20.8965 101.821 20.6423 101.786 20.4971C101.751 20.3518 101.647 20.2066 101.559 20.1885C101.472 20.1521 101.577 19.9343 101.803 19.7346C102.413 19.1536 103.615 17.7012 103.337 17.8827C103.128 18.0098 102.431 18.1188 101.072 18.2095C100.723 18.2458 100.566 18.0643 100.113 17.1202C99.4687 15.7949 99.2248 15.5044 99.3468 16.2125Z" fill="#0097AF"/>
<path d="M80.4252 17.9917C80.2161 20.0069 80.3032 19.898 78.7003 20.1703L77.2716 20.3882L78.6132 21.0418C79.798 21.6228 79.9373 21.7498 79.8851 22.1493C79.8502 22.4034 79.7805 22.9844 79.7108 23.4564C79.6412 23.9466 79.6586 24.3279 79.7457 24.3279C79.8154 24.3279 80.2335 23.9466 80.6517 23.5109C81.0873 23.057 81.5054 22.6939 81.5751 22.6939C81.6622 22.6939 82.2372 22.9299 82.847 23.2204C83.4742 23.5291 83.9795 23.6924 83.9795 23.5835C83.9795 23.4927 83.8924 23.4201 83.7704 23.4201C83.6659 23.4201 83.631 23.3657 83.6833 23.293C83.753 23.2386 83.5614 22.7302 83.2652 22.2037L82.7076 21.2052L83.7356 20.134C84.2931 19.5531 84.7113 19.0629 84.6764 19.0629C84.6242 19.0629 83.9969 19.19 83.2826 19.3352C82.0804 19.5712 81.9584 19.5712 81.7668 19.2807C81.6448 19.1173 81.488 18.8813 81.4183 18.7905C81.3486 18.6816 81.2615 18.4819 81.2267 18.3548C81.1918 18.2096 81.035 17.8102 80.8608 17.4652L80.5472 16.8298L80.4252 17.9917Z" fill="#0097AF"/>
<path d="M98.3187 23.3295C98.3187 23.4747 98.3884 23.5474 98.4755 23.4929C98.5626 23.4384 98.5801 23.3114 98.5278 23.2206C98.371 22.9846 98.3187 23.0209 98.3187 23.3295Z" fill="#0F9DB4"/>
<path d="M92.8479 17.193C92.6214 17.4835 92.6388 17.5016 92.9176 17.2656C93.0744 17.1385 93.2138 16.9933 93.2138 16.957C93.2138 16.8117 93.0744 16.9025 92.8479 17.193Z" fill="#099BB2"/>
<path d="M93.8933 16.2853C93.6668 16.5758 93.6842 16.5939 93.963 16.3579C94.1198 16.2308 94.2592 16.0856 94.2592 16.0493C94.2592 15.904 94.1198 15.9948 93.8933 16.2853Z" fill="#F2FAFB"/>
<path d="M74.3968 41.1035C74.3968 41.1398 74.5362 41.285 74.7104 41.4121C74.9718 41.6481 74.9892 41.63 74.7627 41.3395C74.5362 41.049 74.3968 40.9582 74.3968 41.1035Z" fill="#FFFEFE"/>
<path d="M104.19 86.6728C104.19 86.7091 104.33 86.8544 104.504 86.9814C104.765 87.2175 104.783 87.1993 104.556 86.9088C104.33 86.6183 104.19 86.5276 104.19 86.6728Z" fill="#FEFEFE"/>
<path d="M95.0084 49.1097C95.0084 49.7088 95.0432 49.9267 95.0781 49.5999C95.1129 49.2731 95.1129 48.7829 95.0781 48.5106C95.0432 48.2383 95.0084 48.5106 95.0084 49.1097Z" fill="#FBEAEA"/>
<path d="M96.5416 50.3989C96.5416 50.5986 96.5938 50.653 96.6461 50.5078C96.6984 50.3807 96.6809 50.2173 96.6287 50.1628C96.5764 50.0902 96.5241 50.1991 96.5416 50.3989Z" fill="#FBEAEA"/>
<path d="M90.4261 24.1283C90.4261 25.5988 89.9905 28.0679 89.3807 30.1739C88.8406 31.9895 86.9066 36.1833 86.2097 37.0911L85.8089 37.5994L85.7915 36.2741C85.7741 34.3496 85.2514 33.0606 83.9098 31.6627C82.2198 29.9198 80.0767 29.2662 77.8814 29.8471C72.9333 31.1725 71.2432 37.3997 74.8324 41.1215C76.2088 42.5558 78.2473 43.3001 80.1813 43.1004L81.1047 42.9915L80.4426 43.4817C76.836 46.1142 71.4523 45.9508 68.7343 43.1186C67.8109 42.1564 66.9571 40.4135 66.8003 39.1608C66.7306 38.6887 66.6261 38.3075 66.539 38.3075C66.2602 38.3075 65.8072 41.0671 65.8943 42.3742C66.0163 44.1716 66.6087 45.4606 68.0722 47.0583C69.257 48.3291 71.2955 49.8179 76.7489 53.3763C81.9759 56.7895 85.2166 60.3479 86.1574 63.7974C86.5581 65.2498 86.4536 67.4829 85.9135 68.663C85.0772 70.4603 83.3 71.9491 81.2092 72.5482L80.4078 72.766L81.4532 72.7842C85.2514 72.8387 88.98 70.5874 91.2798 66.8474C95.5311 59.9303 96.0712 44.916 92.5865 30.1013C92.0116 27.6141 90.6526 23.0571 90.4958 23.0571C90.4609 23.0571 90.4261 23.5291 90.4261 24.1283Z" fill="#DC5855"/>
<path d="M92.4123 23.6926C92.935 25.145 94.7121 31.8262 95.2174 34.1319C96.3151 39.3061 96.6984 43.1187 96.6984 49.0191C96.6984 57.6792 95.4091 63.4344 92.4646 67.9913C91.0184 70.2244 88.4921 72.403 86.1051 73.456L85.112 73.9099L85.896 73.7828C87.0982 73.6013 89.8162 72.6572 91.5586 71.8039C100.044 67.6645 106.525 58.9863 109.208 48.2021C109.713 46.1869 110.288 43.0098 110.288 42.2472C110.288 41.9749 110.201 42.0294 109.853 42.4651C108.86 43.6815 107.135 43.8449 105.584 42.8827L104.8 42.3925L105.514 42.3017C107.03 42.0838 107.745 41.0127 107.727 39.0338C107.692 36.1652 105.654 32.8247 103.249 31.6628C101.002 30.5734 99.4861 31.6809 99.4861 34.4405C99.4687 35.5843 99.4512 35.6569 99.2073 35.312C98.6498 34.5676 96.9249 31.5538 94.7644 27.6142C92.6214 23.7108 92.1335 22.912 92.4123 23.6926Z" fill="#DC5855"/>
<path d="M79.2404 29.5384C79.3624 29.5929 79.5192 29.5747 79.5715 29.5202C79.6412 29.4658 79.5366 29.4113 79.345 29.4295C79.1533 29.4295 79.101 29.4839 79.2404 29.5384Z" fill="#F4CBCA"/>
<path d="M89.3633 69.4799C89.1368 69.7704 89.1542 69.7885 89.4329 69.5525C89.7117 69.3165 89.7988 69.1712 89.6594 69.1712C89.6246 69.1712 89.4852 69.3165 89.3633 69.4799Z" fill="#F1BBBA"/>
<path d="M79.2404 43.3365C79.3624 43.391 79.5192 43.3728 79.5715 43.3183C79.6412 43.2639 79.5366 43.2094 79.345 43.2276C79.1533 43.2276 79.101 43.282 79.2404 43.3365Z" fill="#FDF5F4"/>
<path d="M94.9735 47.6755C94.9735 47.8752 95.0258 47.9296 95.078 47.7844C95.1303 47.6573 95.1129 47.4939 95.0606 47.4394C95.0084 47.3668 94.9561 47.4758 94.9735 47.6755Z" fill="#FDF5F4"/>
<path d="M96.5764 49.2005C96.5764 49.7452 96.6113 49.9812 96.6461 49.6907C96.681 49.4184 96.681 48.9826 96.6461 48.6922C96.6113 48.4198 96.5764 48.6559 96.5764 49.2005Z" fill="#FDF5F4"/>
<path d="M74.362 45.3336C74.4839 45.388 74.6407 45.3699 74.693 45.3154C74.7627 45.2609 74.6581 45.2065 74.4665 45.2246C74.2748 45.2246 74.2226 45.2791 74.362 45.3336Z" fill="#EDABA9"/>
<path d="M8.06691 77.8314C9.09487 77.8677 10.7675 77.8677 11.8129 77.8314C12.8408 77.8133 11.9871 77.7769 9.93118 77.7769C7.87525 77.7769 7.02152 77.8133 8.06691 77.8314Z" fill="#6F6F6F"/>
<path d="M24.4795 77.9222C24.4272 78.0492 24.4098 82.0797 24.4272 86.8727L24.4795 95.5872L24.5318 86.7456L24.5666 77.904L26.6226 77.8314L28.6611 77.7769L26.6051 77.7406C25.1068 77.7224 24.5318 77.7588 24.4795 77.9222Z" fill="#6F6F6F"/>
<path d="M44.5684 77.8314C45.1608 77.8677 46.1365 77.8677 46.7463 77.8314C47.3387 77.7951 46.8508 77.7769 45.6486 77.7769C44.4464 77.7769 43.9586 77.7951 44.5684 77.8314Z" fill="#6F6F6F"/>
<path d="M52.5133 77.9585C52.461 78.0856 52.4436 78.6847 52.4785 79.2657L52.5307 80.3368L53.8897 80.355H55.2313L53.9246 80.3005L52.6178 80.2279V79.066V77.8859L56.7645 77.8314L60.8938 77.7951L56.7471 77.7406C53.3845 77.7043 52.583 77.7588 52.5133 77.9585Z" fill="#6F6F6F"/>
<path d="M63.9952 77.8314C65.0231 77.8677 66.6783 77.8677 67.654 77.8314C68.6297 77.8133 67.7934 77.7769 65.7723 77.7769C63.7687 77.7769 62.9672 77.8133 63.9952 77.8314Z" fill="#6F6F6F"/>
<path d="M75.8429 77.8314C76.4004 77.8677 77.2541 77.8677 77.7594 77.8314C78.2647 77.7951 77.8117 77.7769 76.7489 77.7769C75.7035 77.7769 75.2853 77.7951 75.8429 77.8314Z" fill="#6F6F6F"/>
<path d="M83.422 77.8314C83.9098 77.8677 84.7461 77.8677 85.2514 77.8314C85.7393 77.7951 85.3385 77.7769 84.328 77.7769C83.3174 77.7769 82.9167 77.7951 83.422 77.8314Z" fill="#6F6F6F"/>
<path d="M91.1752 77.8314C91.7154 77.8677 92.6214 77.8677 93.1789 77.8314C93.719 77.7951 93.266 77.7769 92.1684 77.7769C91.0707 77.7769 90.6177 77.7951 91.1752 77.8314Z" fill="#6F6F6F"/>
<path d="M98.8414 77.8314C99.1899 77.8677 99.7823 77.8677 100.148 77.8314C100.497 77.7951 100.2 77.7588 99.4861 77.7588C98.7717 77.7588 98.4756 77.7951 98.8414 77.8314Z" fill="#6F6F6F"/>
<path d="M10.1577 80.3732C10.8024 80.4095 11.8478 80.4095 12.5098 80.3732C13.1545 80.3368 12.6144 80.3187 11.3251 80.3187C10.0357 80.3187 9.49563 80.3368 10.1577 80.3732Z" fill="#6F6F6F"/>
<path d="M27.4937 80.3732C27.7028 80.4095 28.0512 80.4095 28.2777 80.3732C28.4868 80.3368 28.3126 80.3005 27.877 80.3005C27.4414 80.3005 27.2672 80.3368 27.4937 80.3732Z" fill="#6F6F6F"/>
<path d="M46.4849 80.3732C46.694 80.4095 47.0425 80.4095 47.269 80.3732C47.478 80.3368 47.3038 80.3005 46.8682 80.3005C46.4326 80.3005 46.2584 80.3368 46.4849 80.3732Z" fill="#6F6F6F"/>
<path d="M58.8554 80.3732C59.2561 80.4095 59.8833 80.4095 60.2492 80.3732C60.5977 80.3368 60.2666 80.3005 59.5 80.3005C58.7334 80.3005 58.4372 80.3368 58.8554 80.3732Z" fill="#6F6F6F"/>
<path d="M65.9117 80.3732C66.5563 80.4095 67.6017 80.4095 68.2638 80.3732C68.9085 80.3368 68.3683 80.3187 67.079 80.3187C65.7897 80.3187 65.2496 80.3368 65.9117 80.3732Z" fill="#6F6F6F"/>
<path d="M6.76018 55.8636C7.07379 55.8999 7.54422 55.8999 7.80557 55.8636C8.06691 55.8273 7.80557 55.791 7.2306 55.791C6.65564 55.791 6.44656 55.8273 6.76018 55.8636Z" fill="#5F5F5F"/>
<path d="M10.7501 55.8636C11.0637 55.8999 11.6212 55.8999 11.9697 55.8636C12.3356 55.8273 12.0917 55.791 11.4122 55.791C10.7501 55.791 10.4539 55.8273 10.7501 55.8636Z" fill="#5F5F5F"/>
<path d="M17.2837 55.8636L18.12 55.9362L18.1723 64.7778L18.2072 73.6194V64.7233V55.8273L17.336 55.8091L16.4648 55.791L17.2837 55.8636Z" fill="#5F5F5F"/>
<path d="M28.6436 55.9906C28.5914 56.1358 28.574 56.5534 28.6262 56.9346C28.6785 57.6064 28.6959 57.6064 28.7133 56.7894L28.7482 55.918L32.8078 55.8635L36.8499 55.8272L32.7904 55.7727C29.4625 55.7364 28.7133 55.7727 28.6436 55.9906Z" fill="#5F5F5F"/>
<path d="M38.7316 55.8636C38.993 55.8999 39.4111 55.8999 39.6899 55.8636C39.9512 55.8273 39.7247 55.791 39.202 55.791C38.6793 55.791 38.4528 55.8273 38.7316 55.8636Z" fill="#5F5F5F"/>
<path d="M43.523 55.8636C44.7077 55.8999 46.5894 55.8999 47.7045 55.8636C48.8196 55.8455 47.8613 55.8092 45.5615 55.8092C43.2616 55.8092 42.3382 55.8455 43.523 55.8636Z" fill="#5F5F5F"/>
<path d="M51.4505 55.8636C51.7118 55.8999 52.13 55.8999 52.4088 55.8636C52.6701 55.8273 52.4436 55.791 51.9209 55.791C51.3982 55.791 51.1717 55.8273 51.4505 55.8636Z" fill="#5F5F5F"/>
<path d="M57.3744 55.8636C57.6357 55.8999 58.019 55.8999 58.2455 55.8636C58.4546 55.8273 58.2455 55.791 57.7577 55.791C57.2873 55.791 57.0956 55.8273 57.3744 55.8636Z" fill="#5F5F5F"/>
<path d="M59.831 55.9906C59.7788 56.1358 59.7613 56.5534 59.8136 56.9346C59.8659 57.6064 59.8833 57.6064 59.9007 56.7894L59.9356 55.918L63.9952 55.8635L68.0373 55.8272L63.9777 55.7727C60.6499 55.7364 59.9007 55.7727 59.831 55.9906Z" fill="#5F5F5F"/>
<path d="M33.7137 65.631C33.7137 70.0246 33.7312 71.8038 33.7486 69.5707C33.7834 67.3376 33.7834 63.7429 33.7486 61.5824C33.7312 59.4219 33.7137 61.2375 33.7137 65.631Z" fill="#5F5F5F"/>
<path d="M64.9012 65.631C64.9012 70.0246 64.9186 71.8038 64.936 69.5707C64.9709 67.3376 64.9709 63.7429 64.936 61.5824C64.9186 59.4219 64.9012 61.2375 64.9012 65.631Z" fill="#5F5F5F"/>
<path d="M21.6395 68.9897C21.6395 69.3346 21.6744 69.4799 21.7266 69.2983C21.7615 69.1349 21.7615 68.8445 21.7266 68.6629C21.6744 68.4995 21.6395 68.6447 21.6395 68.9897Z" fill="#5F5F5F"/>
<path d="M64.7095 82.7877C64.7095 84.1312 64.727 84.694 64.7618 84.0041C64.7966 83.3324 64.7966 82.2431 64.7618 81.5532C64.727 80.8814 64.7095 81.4443 64.7095 82.7877Z" fill="#5F5F5F"/>
<path d="M64.7095 90.4129C64.7095 91.8653 64.7444 92.4463 64.7618 91.7201C64.7966 91.012 64.7966 89.8138 64.7618 89.0876C64.7444 88.3795 64.7095 88.9605 64.7095 90.4129Z" fill="#5F5F5F"/>
<path d="M14.8445 90.8667C14.8445 91.1572 14.8793 91.2661 14.9316 91.0846C14.9664 90.9212 14.9664 90.667 14.9316 90.5399C14.8793 90.431 14.8445 90.5581 14.8445 90.8667Z" fill="#5F5F5F"/>
<path d="M22.8417 91.4296C22.8417 91.6293 22.894 91.6838 22.9463 91.5385C22.9985 91.4115 22.9811 91.2481 22.9289 91.1936C22.8766 91.121 22.8243 91.2299 22.8417 91.4296Z" fill="#5F5F5F"/>
<path d="M16.7262 86.6728C16.7262 86.7091 16.8656 86.8544 17.0398 86.9814C17.3012 87.2175 17.3186 87.1993 17.0921 86.9088C16.8656 86.6183 16.7262 86.5276 16.7262 86.6728Z" fill="#F4F4F4"/>
<path d="M18.4685 88.3068C18.4685 88.3432 18.6079 88.4884 18.7821 88.6155C19.0435 88.8515 19.0609 88.8333 18.8344 88.5429C18.6079 88.2524 18.4685 88.1616 18.4685 88.3068Z" fill="#B1B1B1"/>
<path d="M29.6716 83.423C29.6716 84.2219 29.7065 84.5305 29.7413 84.0948C29.7762 83.6772 29.7762 83.0236 29.7413 82.6424C29.7065 82.2793 29.6716 82.6242 29.6716 83.423Z" fill="#DFDFDF"/>
<path d="M9.89635 85.275C10.3842 85.3113 11.2205 85.3113 11.7258 85.275C12.2136 85.2387 11.8129 85.2205 10.8023 85.2205C9.79181 85.2205 9.39107 85.2387 9.89635 85.275Z" fill="#DFDFDF"/>
<path d="M65.6504 85.275C66.1382 85.3113 66.9745 85.3113 67.4798 85.275C67.9677 85.2387 67.5669 85.2205 66.5564 85.2205C65.5458 85.2205 65.1451 85.2387 65.6504 85.275Z" fill="#DFDFDF"/>
<path d="M17.458 90.9575C17.458 91.3024 17.4929 91.4477 17.5451 91.2661C17.58 91.1027 17.58 90.8122 17.5451 90.6307C17.4929 90.4673 17.458 90.6125 17.458 90.9575Z" fill="#DFDFDF"/>
<path d="M22.8243 62.708C22.8243 62.7443 22.9637 62.8895 23.138 63.0166C23.3993 63.2526 23.4167 63.2345 23.1902 62.944C22.9637 62.6535 22.8243 62.5627 22.8243 62.708Z" fill="#040404"/>
<path d="M25.612 65.2497C25.612 65.286 25.7514 65.4313 25.9256 65.5584C26.187 65.7944 26.2044 65.7762 25.9779 65.4857C25.7514 65.1952 25.612 65.1045 25.612 65.2497Z" fill="#040404"/>
<path d="M18.6428 88.3249C18.8693 88.5791 19.0958 88.7788 19.1306 88.7788C19.1829 88.7788 19.0435 88.5791 18.817 88.3249C18.5905 88.0708 18.364 87.871 18.3291 87.871C18.2769 87.871 18.4163 88.0708 18.6428 88.3249Z" fill="#040404"/>
<path d="M22.441 55.9C20.9078 56.4265 20.1237 57.8063 20.1412 60.003C20.1412 62.2543 20.7858 63.271 23.9046 65.9761C25.1242 67.0291 25.7863 68.3 25.7863 69.5708C25.7863 71.2048 25.0545 72.0762 23.6781 72.0762C22.2842 72.0762 21.6047 71.1503 21.6047 69.2077V68.4452H20.8207H20.0366V69.5164C20.0366 72.1852 21.3956 73.692 23.7826 73.7102C26.2915 73.7102 27.6854 71.931 27.4937 68.9535C27.3718 67.3377 26.8665 66.4663 24.9674 64.6871C22.2319 62.1272 21.7964 61.4736 21.7789 59.9123C21.7789 58.3691 22.5804 57.3705 23.8349 57.3705C25.0719 57.3705 25.6294 58.006 25.8734 59.6762L25.9953 60.4569H26.7794H27.5808L27.4763 59.3676C27.3718 58.0423 26.7445 56.844 25.8559 56.2631C25.159 55.8273 23.2773 55.6276 22.441 55.9Z" fill="black"/>
<path d="M71.522 56.0633C70.5115 56.5535 69.7623 57.5339 69.5183 58.6777C69.379 59.3312 69.3267 61.4554 69.379 65.268C69.4312 70.769 69.4486 70.9143 69.8494 71.7676C70.1107 72.3122 70.5115 72.8206 70.9645 73.1292C71.5917 73.5649 71.8356 73.6194 73.1772 73.6194C74.5362 73.6194 74.7627 73.5649 75.4074 73.111C75.8081 72.8387 76.3134 72.2759 76.5224 71.8402C76.9232 71.0958 76.9232 70.9869 76.9232 64.7052V58.3327L76.4005 57.4613C75.721 56.3356 74.8498 55.8454 73.3514 55.7728C72.5151 55.7365 72.0273 55.8091 71.522 56.0633ZM74.118 57.552C74.362 57.6428 74.7279 57.9878 74.9195 58.3146C75.268 58.8955 75.268 59.1678 75.2331 64.9594L75.1809 71.0232L74.6059 71.5497C74.1529 71.9673 73.8915 72.0762 73.212 72.0762C72.7242 72.0762 72.2189 71.9491 71.975 71.7857C71.1561 71.1684 71.0864 70.6782 71.0864 64.687C71.0864 59.7307 71.1213 59.0226 71.4 58.4598C71.8705 57.4794 72.9855 57.0982 74.118 57.552Z" fill="black"/>
<path d="M6.27234 64.7233V73.5286H7.23061H8.18888V64.7233V55.918H7.23061H6.27234V64.7233Z" fill="black"/>
<path d="M10.2797 64.7233V73.5286H11.0637H11.8477L11.8826 66.3573L11.9349 59.2041L14.1128 66.3573L16.2732 73.5286H17.1966H18.1201V64.7233V55.918H17.336H16.552L16.5171 62.3087L16.4649 68.7174L15.2801 64.9048C14.618 62.7988 13.7294 59.9303 13.2939 58.4961L12.4924 55.918H11.3773H10.2797V64.7233Z" fill="black"/>
<path d="M28.7482 56.735V57.552H30.3163H31.8843V65.5403V73.5286H32.7555H33.6266V65.5403V57.552H35.1947H36.7628V56.735V55.918H32.7555H28.7482V56.735Z" fill="black"/>
<path d="M38.3309 64.7233V73.5286H39.2021H40.0732V64.7233V55.918H39.2021H38.3309V64.7233Z" fill="black"/>
<path d="M41.467 56.735V57.552H43.0351H44.6032V65.5403V73.5286H45.5615H46.5197V65.5403V57.552H48.0878H49.6559V56.735V55.918H45.5615H41.467V56.735Z" fill="black"/>
<path d="M51.0498 63.1983C51.0498 71.0777 51.0847 71.4045 51.9732 72.5483C52.6702 73.4016 53.3845 73.7102 54.7958 73.7102C56.7123 73.7102 57.7577 72.9114 58.2804 71.114C58.4895 70.3696 58.5418 68.8628 58.5418 63.0531V55.9181H57.7751H56.9911L56.9388 63.2165C56.8866 69.7887 56.8517 70.5875 56.5729 71.114C56.4161 71.4408 56.1199 71.7858 55.9457 71.8947C55.4927 72.1307 54.3079 72.1307 53.7678 71.8765C52.827 71.4227 52.7921 71.114 52.7921 63.1983V55.9181H51.921H51.0498V63.1983Z" fill="black"/>
<path d="M59.9356 56.735V57.552H61.5037H63.0718V65.5403V73.5286H63.9429H64.8141V65.5403V57.552H66.3822H67.9502V56.735V55.918H63.9429H59.9356V56.735Z" fill="black"/>
<path d="M17.1618 78.0492C15.7331 78.7391 15.0884 79.9737 15.0884 82.0615C15.0884 84.0767 15.6285 85.1842 17.5625 87.145C19.4268 89.0331 19.9495 89.7412 20.1934 90.7215C20.4373 91.6656 20.1934 92.8639 19.6881 93.1362C19.1306 93.4448 18.1549 93.354 17.7716 92.9546C17.4928 92.6641 17.4231 92.3555 17.4231 91.5022V90.4129H16.2035H14.9839V91.357C14.9839 94.1529 16.4126 95.7142 18.9041 95.7142C21.535 95.7324 22.9811 93.9532 22.7895 90.9576C22.6501 89.1239 22.1971 88.2887 20.054 86.0012C18.0155 83.8226 17.5974 83.1145 17.5974 81.8255C17.5974 80.6999 18.1026 80.0644 18.9738 80.0644C19.8972 80.0644 20.3851 80.6454 20.3851 81.7529V82.6062H21.6047H22.8243V81.9163C22.8243 80.0281 21.8312 78.3578 20.4373 77.9221C19.4094 77.5953 17.9632 77.6498 17.1618 78.0492Z" fill="black"/>
<path d="M35.8045 78.0491C34.916 78.4667 34.0448 79.4834 33.8183 80.373C33.5744 81.2626 33.5744 92.0831 33.8009 92.9727C34.2713 94.7519 35.5955 95.7141 37.5817 95.7141C39.0104 95.7141 39.777 95.4236 40.5611 94.5703C41.589 93.481 41.6761 92.7911 41.6064 86.2916C41.5542 80.7361 41.5367 80.4819 41.1709 79.7738C40.683 78.8298 39.9164 78.1399 39.0627 77.8857C38.0695 77.6134 36.5886 77.6678 35.8045 78.0491ZM38.6619 80.5364C39.0104 81.0084 39.0278 81.2263 39.0278 86.7999C39.0278 92.3917 39.0104 92.6096 38.6619 92.9727C38.3832 93.2632 38.1392 93.3176 37.4946 93.2813C36.7628 93.2268 36.6408 93.1724 36.3795 92.5914C36.1007 92.0286 36.0659 91.3569 36.0659 86.8725C36.0659 83.9314 36.1356 81.4986 36.2401 81.1173C36.4666 80.3185 36.7802 80.0825 37.6688 80.0643C38.1567 80.0643 38.3832 80.1733 38.6619 80.5364Z" fill="black"/>
<path d="M104.626 78.031C103.145 78.7572 102.553 80.0826 102.657 82.4246C102.744 84.3854 103.197 85.2205 105.34 87.4173C107.396 89.5233 107.745 90.1042 107.745 91.5204C107.762 92.8457 107.414 93.3177 106.386 93.3177C105.985 93.3177 105.584 93.2451 105.48 93.1725C105.096 92.9183 104.887 92.2466 104.887 91.3388V90.4129H103.668H102.448V91.2843C102.448 94.1165 103.912 95.7324 106.455 95.7142C108.355 95.7142 109.696 94.752 110.132 93.0817C110.428 91.9198 110.254 89.7593 109.766 88.7789C109.557 88.3432 108.494 87.036 107.431 85.8741C105.811 84.1493 105.445 83.641 105.253 82.9148C104.8 81.2445 105.34 80.0644 106.56 80.0644C107.431 80.0644 107.849 80.5909 107.849 81.6984V82.6062H109.086H110.341L110.254 81.4624C110.132 80.01 109.609 78.9388 108.703 78.3034C107.762 77.6498 105.689 77.5045 104.626 78.031Z" fill="black"/>
<path d="M6.27234 86.6911V95.4963H9.9312H13.5901V94.3162V93.1362H11.2379H8.88581V90.5037V87.8712H10.7152H12.5447V86.6003V85.3294H10.7152H8.88581V82.7877V80.246H11.2379H13.5901V79.0659V77.8858H9.9312H6.27234V86.6911Z" fill="black"/>
<path d="M24.5667 86.6911V95.4963H25.8734H27.1801V92.1376V88.7789H28.3997C30.2814 88.7789 31.2223 88.2706 31.9541 86.8726C32.2851 86.219 32.3199 85.8559 32.3199 83.4231C32.3199 80.8632 32.2851 80.6272 31.8844 79.7921C31.5185 79.0477 31.2571 78.7936 30.4905 78.376C29.6019 77.9039 29.4451 77.8858 27.0582 77.8858H24.5667V86.6911ZM29.4451 80.6091C29.7587 80.9359 29.7936 81.2082 29.7936 83.296C29.7936 86.2372 29.7065 86.4187 28.2081 86.4187H27.1801V83.3324V80.246H28.1384C28.8702 80.246 29.1838 80.3367 29.4451 80.6091Z" fill="black"/>
<path d="M43.5579 86.6729V95.4963H44.7775H45.9971V91.8653V88.2343H46.694C47.0773 88.2343 47.6697 88.3432 48.0008 88.4884C48.7848 88.8334 48.959 89.5233 48.959 92.537C48.959 93.8442 49.0113 95.0425 49.0636 95.2059C49.1507 95.4237 49.4295 95.4963 50.3529 95.4963H51.5202L51.4331 92.3555C51.346 88.8697 51.1543 88.0527 50.2135 87.3265L49.6908 86.9271L50.3529 86.3098C51.2415 85.4747 51.4505 84.5851 51.3808 82.0978C51.3112 80.3186 51.2589 80.0463 50.8407 79.3927C50.0741 78.1763 49.4643 77.9766 46.3107 77.9221L43.5579 77.8676V86.6729ZM48.4189 80.5909C49.1333 81.3353 49.1333 84.6395 48.4189 85.4384C48.0879 85.8015 47.8614 85.8741 47.0076 85.8741H45.9971V83.06V80.246H47.0425C47.844 80.246 48.175 80.3367 48.4189 80.5909Z" fill="black"/>
<path d="M52.6179 79.0659V80.246H54.0117H55.4056V87.8712V95.4963H56.7123H58.019V87.8712V80.246H59.4129H60.8067V79.0659V77.8858H56.7123H52.6179V79.0659Z" fill="black"/>
<path d="M62.2006 86.6911V95.4963H65.7723H69.344V94.3162V93.1362H66.9919H64.6398V90.5037V87.8712H66.4692H68.2987V86.6003V85.3294H66.4692H64.6398V82.7877V80.246H66.9919H69.344V79.0659V77.8858H65.7723H62.2006V86.6911Z" fill="black"/>
<path d="M74.9195 86.6911V95.4963H76.052H77.1845L77.2019 89.2691C77.2019 85.8559 77.2368 83.1326 77.289 83.2416C77.3239 83.3324 77.742 85.9104 78.2299 88.9605C78.7177 92.0105 79.1533 94.7157 79.2056 94.988C79.2927 95.4782 79.3275 95.4963 80.4949 95.4963C81.5751 95.4963 81.6797 95.46 81.7668 95.0788C81.8191 94.8609 82.2372 92.0287 82.6902 88.7789L83.5439 82.8785L83.5962 89.1783L83.6311 95.4963H84.8507H86.0703V86.6911V77.8858H84.2931H82.4986L81.6448 83.8407C81.1744 87.1086 80.7388 89.9408 80.6691 90.1406C80.5472 90.4492 80.5123 90.3947 80.4252 89.8682C80.2161 88.7244 78.5784 78.1763 78.5784 78.031C78.5784 77.9584 77.7595 77.8858 76.7489 77.8858H74.9195V86.6911Z" fill="black"/>
<path d="M90.1647 78.4668C89.8337 80.4639 87.6384 94.988 87.6384 95.224C87.6384 95.4419 87.8649 95.4964 88.7534 95.4964H89.8685L90.0776 93.9532L90.2867 92.41H91.9942C93.9107 92.41 93.8062 92.3192 93.9978 93.9532C94.2069 95.5508 94.1372 95.4964 95.4962 95.4964C96.4196 95.4964 96.6984 95.4419 96.6984 95.2422C96.6984 95.0969 96.106 91.1573 95.3917 86.4914C94.6773 81.8255 94.0849 77.9766 94.0849 77.9403C94.0849 77.9221 93.2312 77.8858 92.1684 77.8858H90.2693L90.1647 78.4668ZM92.7782 85.511C93.1092 87.853 93.388 89.8319 93.388 89.9046C93.388 89.9953 92.7608 90.0498 91.9767 90.0498C90.7223 90.0498 90.5829 90.0135 90.67 89.723C90.7048 89.5596 91.001 87.617 91.2972 85.4202C91.8548 81.4442 91.9767 80.718 92.0987 81.063C92.1335 81.1538 92.4297 83.169 92.7782 85.511Z" fill="black"/>
<path d="M98.2665 86.6911V95.4963H99.4861H100.706V86.6911V77.8858H99.4861H98.2665V86.6911Z" fill="black"/>
<path d="M69.2396 64.7234C69.2396 67.4103 69.2744 68.5541 69.2918 67.2288C69.3267 65.9216 69.3267 63.7067 69.2918 62.3269C69.2744 60.9471 69.2396 62.0182 69.2396 64.7234Z" fill="#7F7F7F"/>
<path d="M8.95551 82.7877C8.95551 84.1312 8.97293 84.694 9.00777 84.0041C9.04262 83.3324 9.04262 82.2431 9.00777 81.5532C8.97293 80.8814 8.95551 81.4443 8.95551 82.7877Z" fill="#7F7F7F"/>
<path d="M22.8592 82.2432C22.8592 82.4973 22.894 82.5881 22.9463 82.461C22.9812 82.3521 22.9812 82.1342 22.9463 82.0072C22.894 81.8982 22.8592 81.989 22.8592 82.2432Z" fill="#7F7F7F"/>
<path d="M8.95551 90.4129C8.95551 91.8653 8.99035 92.4463 9.00777 91.7201C9.04262 91.012 9.04262 89.8138 9.00777 89.0876C8.99035 88.3795 8.95551 88.9605 8.95551 90.4129Z" fill="#7F7F7F"/>
<path d="M10.1925 64.7233C10.1925 69.607 10.2099 71.5859 10.2274 69.1168C10.2622 66.6296 10.2622 62.6354 10.2274 60.2208C10.2099 57.8061 10.1925 59.8214 10.1925 64.7233Z" fill="#0F0F0F"/>
<path d="M56.8865 62.726C56.8865 66.5205 56.904 68.1 56.9214 66.23C56.9562 64.36 56.9562 61.2555 56.9214 59.331C56.904 57.4066 56.8865 58.9316 56.8865 62.726Z" fill="#0F0F0F"/>
<path d="M25.8036 60.2026C25.8036 60.4023 25.8559 60.4567 25.9082 60.3115C25.9605 60.1844 25.943 60.021 25.8908 59.9665C25.8385 59.8939 25.7862 60.0029 25.8036 60.2026Z" fill="#0F0F0F"/>
<path d="M21.4304 63.7973C21.4304 63.8336 21.5698 63.9789 21.744 64.106C22.0054 64.342 22.0228 64.3238 21.7963 64.0333C21.5698 63.7429 21.4304 63.6521 21.4304 63.7973Z" fill="#0F0F0F"/>
<path d="M62.1135 86.7818V95.5871H65.6852L69.2569 95.6052L65.7375 95.5508L62.2006 95.4963L62.1483 86.7273L62.1135 77.9765V86.7818Z" fill="#0F0F0F"/>
<path d="M108.023 86.4912C108.023 86.5275 108.163 86.6727 108.337 86.7998C108.598 87.0358 108.616 87.0177 108.389 86.7272C108.163 86.4367 108.023 86.3459 108.023 86.4912Z" fill="#0F0F0F"/>
<path d="M27.4937 88.9059C27.7028 88.9422 28.0512 88.9422 28.2777 88.9059C28.4868 88.8696 28.3126 88.8333 27.877 88.8333C27.4414 88.8333 27.2672 88.8696 27.4937 88.9059Z" fill="#0F0F0F"/>
<path d="M87.4641 95.5326C87.4641 95.6234 88.0391 95.6597 88.736 95.6597C90.0602 95.6234 89.9208 95.5507 88.3701 95.46C87.8823 95.4237 87.4641 95.46 87.4641 95.5326Z" fill="#0F0F0F"/>
<path d="M8.06691 95.6234C9.09487 95.6597 10.7675 95.6597 11.8129 95.6234C12.8408 95.6052 11.9871 95.5689 9.93118 95.5689C7.87525 95.5689 7.02152 95.6052 8.06691 95.6234Z" fill="#0F0F0F"/>
<path d="M25.2287 95.6232C25.6295 95.6595 26.2567 95.6595 26.6226 95.6232C26.971 95.5868 26.64 95.5505 25.8734 95.5505C25.1068 95.5505 24.8106 95.5868 25.2287 95.6232Z" fill="#0F0F0F"/>
<path d="M44.1328 95.6232C44.4813 95.6595 45.0737 95.6595 45.4396 95.6232C45.788 95.5868 45.4918 95.5505 44.7775 95.5505C44.0631 95.5505 43.7669 95.5868 44.1328 95.6232Z" fill="#0F0F0F"/>
<path d="M49.7953 95.6232C50.196 95.6595 50.8233 95.6595 51.1892 95.6232C51.5376 95.5868 51.2066 95.5505 50.44 95.5505C49.6733 95.5505 49.3772 95.5868 49.7953 95.6232Z" fill="#0F0F0F"/>
<path d="M56.0676 95.6232C56.4684 95.6595 57.0956 95.6595 57.4615 95.6232C57.81 95.5868 57.4789 95.5505 56.7123 95.5505C55.9457 95.5505 55.6495 95.5868 56.0676 95.6232Z" fill="#0F0F0F"/>
<path d="M75.3899 95.6232C75.7035 95.6595 76.2611 95.6595 76.6095 95.6232C76.9754 95.5868 76.7315 95.5505 76.052 95.5505C75.3899 95.5505 75.0937 95.5868 75.3899 95.6232Z" fill="#0F0F0F"/>
<path d="M79.8502 95.6232C80.1987 95.6595 80.7911 95.6595 81.157 95.6232C81.5054 95.5868 81.2092 95.5505 80.4949 95.5505C79.7805 95.5505 79.4843 95.5868 79.8502 95.6232Z" fill="#0F0F0F"/>
<path d="M84.206 95.6232C84.5545 95.6595 85.1469 95.6595 85.5127 95.6232C85.8612 95.5868 85.565 95.5505 84.8507 95.5505C84.1363 95.5505 83.8401 95.5868 84.206 95.6232Z" fill="#0F0F0F"/>
<path d="M94.9212 95.6232C95.322 95.6595 95.9492 95.6595 96.3151 95.6232C96.6635 95.5868 96.3325 95.5505 95.5659 95.5505C94.7993 95.5505 94.5031 95.5868 94.9212 95.6232Z" fill="#0F0F0F"/>
<path d="M98.8414 95.6232C99.1899 95.6595 99.7823 95.6595 100.148 95.6232C100.497 95.5868 100.2 95.5505 99.4861 95.5505C98.7717 95.5505 98.4756 95.5868 98.8414 95.6232Z" fill="#0F0F0F"/>
<path d="M16.4474 62C16.4474 65.395 16.4823 66.7566 16.4997 65.0319C16.5346 63.3071 16.5346 60.5294 16.4997 58.8591C16.4823 57.1888 16.4474 58.6049 16.4474 62Z" fill="#CFCFCF"/>
<path d="M49.7083 56.735C49.7083 57.2252 49.7431 57.4249 49.7779 57.1345C49.8128 56.8621 49.8128 56.4627 49.7779 56.2267C49.7431 56.0088 49.7083 56.2267 49.7083 56.735Z" fill="#CFCFCF"/>
<path d="M52.8793 62.7263C52.8793 66.5207 52.8967 68.1002 52.9141 66.2302C52.949 64.3602 52.949 61.2557 52.9141 59.3312C52.8967 57.4068 52.8793 58.9318 52.8793 62.7263Z" fill="#CFCFCF"/>
<path d="M58.1062 87.962C58.1062 92.1558 58.1236 93.8442 58.141 91.7201C58.1759 89.5959 58.1759 86.1646 58.141 84.0949C58.1236 82.0252 58.1062 83.7681 58.1062 87.962Z" fill="#CFCFCF"/>
<path d="M20.2806 82.334C20.298 82.6608 20.42 82.6971 21.6047 82.7152L22.9115 82.7334L21.657 82.6608C20.6639 82.6063 20.3851 82.5337 20.3329 82.2795C20.2806 82.0617 20.2632 82.0798 20.2806 82.334Z" fill="#CFCFCF"/>
<path d="M38.9233 86.7819C38.9233 89.5233 38.9581 90.6489 38.9755 89.2691C39.0104 87.9075 39.0104 85.6562 38.9755 84.2764C38.9581 82.9148 38.9233 84.0404 38.9233 86.7819Z" fill="#CFCFCF"/>
<path d="M108.424 82.7333C108.773 82.7696 109.365 82.7696 109.731 82.7333C110.079 82.697 109.783 82.6606 109.069 82.6606C108.355 82.6606 108.058 82.697 108.424 82.7333Z" fill="#CFCFCF"/>
<path d="M77.2542 89.7775C77.2542 92.9728 77.2891 94.2618 77.3065 92.6279C77.3413 90.9939 77.3413 88.3796 77.3065 86.8182C77.2891 85.2569 77.2542 86.5822 77.2542 89.7775Z" fill="#CFCFCF"/>
<path d="M27.4937 86.3644C27.7028 86.4007 28.0164 86.4007 28.1907 86.3644C28.3475 86.3099 28.1732 86.2736 27.7899 86.2917C27.4066 86.2917 27.2672 86.3281 27.4937 86.3644Z" fill="#CFCFCF"/>
<path d="M10.1577 93.0817C10.8024 93.118 11.8478 93.118 12.5098 93.0817C13.1545 93.0453 12.6144 93.0272 11.3251 93.0272C10.0357 93.0272 9.49563 93.0453 10.1577 93.0817Z" fill="#CFCFCF"/>
<path d="M65.9117 93.0817C66.5564 93.118 67.6018 93.118 68.2639 93.0817C68.9085 93.0453 68.3684 93.0272 67.0791 93.0272C65.7898 93.0272 65.2497 93.0453 65.9117 93.0817Z" fill="#CFCFCF"/>
<path d="M75.1634 64.7231C75.1634 67.4101 75.1982 68.5539 75.2157 67.2285C75.2505 65.9214 75.2505 63.7064 75.2157 62.3266C75.1982 60.9468 75.1634 62.018 75.1634 64.7231Z" fill="#AFAFAF"/>
<path d="M13.6423 79.0659C13.6423 79.7558 13.6772 80.0282 13.712 79.6469C13.7469 79.2838 13.7469 78.7028 13.712 78.376C13.6772 78.0674 13.6423 78.3579 13.6423 79.0659Z" fill="#AFAFAF"/>
<path d="M46.3978 85.8194C46.5546 85.8558 46.8334 85.8558 47.0076 85.8194C47.1645 85.765 47.0251 85.7287 46.694 85.7287C46.363 85.7287 46.2236 85.765 46.3978 85.8194Z" fill="#AFAFAF"/>
<path d="M104.922 90.9575C104.922 91.3024 104.957 91.4477 105.009 91.2661C105.044 91.1027 105.044 90.8122 105.009 90.6307C104.957 90.4673 104.922 90.6125 104.922 90.9575Z" fill="#AFAFAF"/>
<path d="M13.6423 94.3162C13.6423 95.0061 13.6772 95.2784 13.712 94.8971C13.7469 94.534 13.7469 93.9531 13.712 93.6263C13.6772 93.3176 13.6423 93.6081 13.6423 94.3162Z" fill="#AFAFAF"/>
<path d="M36.8151 56.735C36.8151 57.2252 36.8499 57.4249 36.8848 57.1345C36.9196 56.8621 36.9196 56.4627 36.8848 56.2267C36.8499 56.0088 36.8151 56.2267 36.8151 56.735Z" fill="#2F2F2F"/>
<path d="M100.793 86.691C100.793 91.5748 100.81 93.5537 100.828 91.0846C100.863 88.5973 100.863 84.6032 100.828 82.1886C100.81 79.7739 100.793 81.7891 100.793 86.691Z" fill="#2F2F2F"/>
<path d="M36.1356 86.6911C36.1356 89.3781 36.1704 90.5219 36.1878 89.1966C36.2227 87.8894 36.2227 85.6745 36.1878 84.2947C36.1704 82.9149 36.1356 83.986 36.1356 86.6911Z" fill="#2F2F2F"/>
<path d="M48.837 83.06C48.837 83.5502 48.8719 83.7499 48.9067 83.4594C48.9416 83.1871 48.9416 82.7877 48.9067 82.5516C48.8719 82.3338 48.837 82.5516 48.837 83.06Z" fill="#2F2F2F"/>
<path d="M12.5969 86.6002C12.5969 87.3446 12.6318 87.6532 12.6666 87.272C12.7015 86.9088 12.7015 86.2916 12.6666 85.9103C12.6318 85.5472 12.5969 85.8558 12.5969 86.6002Z" fill="#2F2F2F"/>
<path d="M46.3107 88.3612C46.4153 88.3975 46.6243 88.3975 46.7463 88.3612C46.8508 88.3067 46.7637 88.2704 46.5198 88.2704C46.2759 88.2704 46.1888 88.3067 46.3107 88.3612Z" fill="#2F2F2F"/>
<path d="M15.5588 90.3583C15.9073 90.3946 16.4997 90.3946 16.8656 90.3583C17.214 90.322 16.9179 90.2856 16.2035 90.2856C15.4892 90.2856 15.193 90.322 15.5588 90.3583Z" fill="#2F2F2F"/>
<path d="M103.023 90.3583C103.371 90.3946 103.964 90.3946 104.33 90.3583C104.678 90.322 104.382 90.2856 103.668 90.2856C102.953 90.2856 102.657 90.322 103.023 90.3583Z" fill="#2F2F2F"/>
<path d="M38.2438 64.7233C38.2438 69.607 38.2612 71.5859 38.2786 69.1168C38.3135 66.6296 38.3135 62.6354 38.2786 60.2208C38.2612 57.8061 38.2438 59.8214 38.2438 64.7233Z" fill="#4F4F4F"/>
<path d="M26.3612 60.5839C26.6226 60.6202 27.0059 60.6202 27.2324 60.5839C27.4414 60.5475 27.2324 60.5112 26.7445 60.5112C26.2741 60.5112 26.0824 60.5475 26.3612 60.5839Z" fill="#4F4F4F"/>
<path d="M43.4707 86.691C43.4707 91.5748 43.4881 93.5537 43.5055 91.0846C43.5404 88.5973 43.5404 84.6032 43.5055 82.1886C43.4881 79.7739 43.4707 81.7891 43.4707 86.691Z" fill="#4F4F4F"/>
<path d="M86.1574 86.691C86.1574 91.5748 86.1748 93.5537 86.1923 91.0846C86.2271 88.5973 86.2271 84.6032 86.1923 82.1886C86.1748 79.7739 86.1574 81.7891 86.1574 86.691Z" fill="#4F4F4F"/>
<path d="M110.323 82.1524C110.323 82.4428 110.358 82.5518 110.41 82.3702C110.445 82.2068 110.445 81.9527 110.41 81.8256C110.358 81.7166 110.323 81.8437 110.323 82.1524Z" fill="#4F4F4F"/>
<path d="M33.5221 86.6911C33.5221 89.3781 33.5569 90.5219 33.5744 89.1966C33.6092 87.8894 33.6092 85.6745 33.5744 84.2947C33.5569 82.9149 33.5221 83.986 33.5221 86.6911Z" fill="#4F4F4F"/>
<path d="M48.8545 92.1376C48.8545 93.0272 48.8719 93.4266 48.9068 93.0091C48.9416 92.5915 48.9416 91.8471 48.9068 91.3751C48.8719 90.9031 48.8545 91.2299 48.8545 92.1376Z" fill="#4F4F4F"/>
<path d="M40.1603 64.7233C40.1603 69.607 40.1778 71.5859 40.1952 69.1168C40.23 66.6296 40.23 62.6354 40.1952 60.2208C40.1778 57.8061 40.1603 59.8214 40.1603 64.7233Z" fill="#9F9F9F"/>
<path d="M29.4974 57.6791C29.9504 57.7154 30.6647 57.7154 31.0654 57.6791C31.4662 57.6428 31.1003 57.6246 30.2291 57.6246C29.3754 57.6246 29.0444 57.6428 29.4974 57.6791Z" fill="#9F9F9F"/>
<path d="M34.5501 57.6791C35.0031 57.7154 35.7174 57.7154 36.1182 57.6791C36.5189 57.6428 36.153 57.6246 35.2819 57.6246C34.4281 57.6246 34.0971 57.6428 34.5501 57.6791Z" fill="#9F9F9F"/>
<path d="M42.2162 57.6791C42.6692 57.7154 43.3836 57.7154 43.7843 57.6791C44.185 57.6428 43.8192 57.6246 42.948 57.6246C42.0943 57.6246 41.7632 57.6428 42.2162 57.6791Z" fill="#9F9F9F"/>
<path d="M47.269 57.6791C47.722 57.7154 48.4537 57.7154 48.9242 57.6791C49.3772 57.6428 48.9939 57.6246 48.0879 57.6246C47.1819 57.6246 46.7985 57.6428 47.269 57.6791Z" fill="#9F9F9F"/>
<path d="M60.6848 57.6791C61.1378 57.7154 61.8521 57.7154 62.2529 57.6791C62.6536 57.6428 62.2877 57.6246 61.4166 57.6246C60.5628 57.6246 60.2318 57.6428 60.6848 57.6791Z" fill="#9F9F9F"/>
<path d="M65.7375 57.6791C66.1905 57.7154 66.9048 57.7154 67.3056 57.6791C67.7063 57.6428 67.3404 57.6246 66.4692 57.6246C65.6155 57.6246 65.2845 57.6428 65.7375 57.6791Z" fill="#9F9F9F"/>
<path d="M71.1561 64.7231C71.1561 67.4101 71.1909 68.5539 71.2083 67.2285C71.2432 65.9214 71.2432 63.7064 71.2083 62.3266C71.1909 60.9468 71.1561 62.018 71.1561 64.7231Z" fill="#9F9F9F"/>
<path d="M60.859 79.0659C60.859 79.7558 60.8939 80.0282 60.9287 79.6469C60.9635 79.2838 60.9635 78.7028 60.9287 78.376C60.8939 78.0674 60.859 78.3579 60.859 79.0659Z" fill="#9F9F9F"/>
<path d="M69.3963 79.0659C69.3963 79.7558 69.4311 80.0282 69.466 79.6469C69.5008 79.2838 69.5008 78.7028 69.466 78.376C69.4311 78.0674 69.3963 78.3579 69.3963 79.0659Z" fill="#9F9F9F"/>
<path d="M55.3184 87.962C55.3184 92.1558 55.3358 93.8442 55.3533 91.7201C55.3881 89.5959 55.3881 86.1646 55.3533 84.0949C55.3358 82.0252 55.3184 83.7681 55.3184 87.962Z" fill="#9F9F9F"/>
<path d="M41.711 86.6909C41.711 89.3779 41.7458 90.5216 41.7633 89.1963C41.7981 87.8891 41.7981 85.6742 41.7633 84.2944C41.7458 82.9146 41.711 83.9858 41.711 86.6909Z" fill="#9F9F9F"/>
<path d="M91.3495 89.9952C91.698 90.0315 92.2903 90.0315 92.6562 89.9952C93.0047 89.9589 92.7085 89.9226 91.9942 89.9226C91.2798 89.9226 90.9836 89.9589 91.3495 89.9952Z" fill="#9F9F9F"/>
<path d="M102.326 91.0481C102.326 91.4476 102.361 91.5928 102.396 91.3568C102.431 91.1389 102.431 90.8121 102.396 90.6306C102.343 90.4672 102.309 90.6487 102.326 91.0481Z" fill="#9F9F9F"/>
<path d="M69.3963 94.3162C69.3963 95.0061 69.4311 95.2784 69.466 94.8971C69.5008 94.534 69.5008 93.9531 69.466 93.6263C69.4311 93.3176 69.3963 93.6081 69.3963 94.3162Z" fill="#9F9F9F"/>
<path d="M41.3451 56.735C41.3451 57.2252 41.3799 57.4249 41.4148 57.1345C41.4496 56.8621 41.4496 56.4627 41.4148 56.2267C41.3799 56.0088 41.3451 56.2267 41.3451 56.735Z" fill="#BFBFBF"/>
<path d="M50.9626 62.6353C50.9626 66.3753 50.9801 67.9185 50.9975 66.0303C51.0323 64.1603 51.0323 61.1103 50.9975 59.2221C50.9801 57.3521 50.9626 58.8953 50.9626 62.6353Z" fill="#3F3F3F"/>
<path d="M68.0025 56.735C68.0025 57.2252 68.0373 57.4249 68.0722 57.1345C68.107 56.8621 68.107 56.4627 68.0722 56.2267C68.0373 56.0088 68.0025 56.2267 68.0025 56.735Z" fill="#3F3F3F"/>
<path d="M77.08 64.7232C77.08 67.3194 77.1148 68.3543 77.1322 67.029C77.1671 65.7036 77.1671 63.5795 77.1322 62.3086C77.1148 61.0377 77.08 62.1271 77.08 64.7232Z" fill="#3F3F3F"/>
<path d="M19.8972 68.8989C19.8972 69.1894 19.9321 69.2984 19.9843 69.1168C20.0192 68.9534 20.0192 68.6992 19.9843 68.5722C19.9321 68.4632 19.8972 68.5903 19.8972 68.8989Z" fill="#3F3F3F"/>
<path d="M98.1793 86.691C98.1793 91.5748 98.1967 93.5537 98.2142 91.0846C98.249 88.5973 98.249 84.6032 98.2142 82.1886C98.1967 79.7739 98.1793 81.7891 98.1793 86.691Z" fill="#3F3F3F"/>
<path d="M51.4505 82.6061C51.4505 83.06 51.4853 83.2416 51.5202 83.0055C51.555 82.7877 51.555 82.4246 51.5202 82.1885C51.4853 81.9707 51.4505 82.1522 51.4505 82.6061Z" fill="#3F3F3F"/>
<path d="M58.6288 62.6353C58.6288 66.3753 58.6463 67.9185 58.6637 66.0303C58.6985 64.1603 58.6985 61.1103 58.6637 59.2221C58.6463 57.3521 58.6288 58.8953 58.6288 62.6353Z" fill="#8F8F8F"/>
<path d="M31.7972 65.631C31.7972 70.0246 31.8146 71.8038 31.832 69.5707C31.8669 67.3376 31.8669 63.7429 31.832 61.5824C31.8146 59.4219 31.7972 61.2375 31.7972 65.631Z" fill="#8F8F8F"/>
<path d="M62.9846 65.631C62.9846 70.0246 63.002 71.8038 63.0195 69.5707C63.0543 67.3376 63.0543 63.7429 63.0195 61.5824C63.002 59.4219 62.9846 61.2375 62.9846 65.631Z" fill="#8F8F8F"/>
<path d="M20.4373 68.3905C20.6987 68.4268 21.082 68.4268 21.3085 68.3905C21.5176 68.3542 21.3085 68.3179 20.8206 68.3179C20.3502 68.3179 20.1586 68.3542 20.4373 68.3905Z" fill="#8F8F8F"/>
<path d="M74.8323 86.691C74.8323 91.5748 74.8498 93.5537 74.8672 91.0846C74.902 88.5973 74.902 84.6032 74.8672 82.1886C74.8498 79.7739 74.8323 81.7891 74.8323 86.691Z" fill="#8F8F8F"/>
<path d="M32.4593 83.3324C32.4593 84.0767 32.4941 84.3854 32.529 84.0041C32.5638 83.641 32.5638 83.0237 32.529 82.6425C32.4941 82.2794 32.4593 82.588 32.4593 83.3324Z" fill="#8F8F8F"/>
<path d="M6.76018 73.6556C7.07379 73.6919 7.54422 73.6919 7.80557 73.6556C8.06691 73.6193 7.80557 73.583 7.2306 73.583C6.65564 73.583 6.44656 73.6193 6.76018 73.6556Z" fill="#1F1F1F"/>
<path d="M10.6804 73.6556C10.9417 73.6919 11.325 73.6919 11.5515 73.6556C11.7606 73.6193 11.5515 73.583 11.0637 73.583C10.5932 73.583 10.4016 73.6193 10.6804 73.6556Z" fill="#1F1F1F"/>
<path d="M16.7785 73.6556C17.0398 73.6919 17.458 73.6919 17.7368 73.6556C17.9981 73.6193 17.7716 73.583 17.2489 73.583C16.7262 73.583 16.4997 73.6193 16.7785 73.6556Z" fill="#1F1F1F"/>
<path d="M32.2851 73.6556C32.5464 73.6919 32.9646 73.6919 33.2434 73.6556C33.5047 73.6193 33.2782 73.583 32.7555 73.583C32.2328 73.583 32.0063 73.6193 32.2851 73.6556Z" fill="#1F1F1F"/>
<path d="M38.7316 73.6556C38.993 73.6919 39.4111 73.6919 39.6899 73.6556C39.9512 73.6193 39.7247 73.583 39.202 73.583C38.6793 73.583 38.4528 73.6193 38.7316 73.6556Z" fill="#1F1F1F"/>
<path d="M45.091 73.6556C45.4047 73.6919 45.8751 73.6919 46.1364 73.6556C46.3978 73.6193 46.1364 73.583 45.5615 73.583C44.9865 73.583 44.7774 73.6193 45.091 73.6556Z" fill="#1F1F1F"/>
<path d="M63.4725 73.6556C63.7338 73.6919 64.152 73.6919 64.4307 73.6556C64.6921 73.6193 64.4656 73.583 63.9429 73.583C63.4202 73.583 63.1937 73.6193 63.4725 73.6556Z" fill="#1F1F1F"/>
<path d="M46.0668 83.06C46.0668 84.5487 46.1016 85.1478 46.119 84.3671C46.1539 83.5865 46.1539 82.3701 46.119 81.6439C46.1016 80.9177 46.0668 81.5531 46.0668 83.06Z" fill="#1F1F1F"/>
<path d="M68.351 86.6002C68.351 87.3446 68.3858 87.6532 68.4206 87.272C68.4555 86.9088 68.4555 86.2916 68.4206 85.9103C68.3858 85.5472 68.351 85.8558 68.351 86.6002Z" fill="#1F1F1F"/>
<path d="M46.0668 91.9561C46.0668 93.9532 46.1016 94.7883 46.119 93.8261C46.1539 92.8639 46.1539 91.2299 46.119 90.1951C46.1016 89.1602 46.0668 89.959 46.0668 91.9561Z" fill="#1F1F1F"/>
<path d="M51.468 92.3192C51.468 93.3178 51.4854 93.699 51.5202 93.1725C51.5551 92.646 51.5551 91.829 51.5202 91.357C51.4854 90.885 51.468 91.3207 51.468 92.3192Z" fill="#1F1F1F"/>
<path d="M106.194 88.4157C106.368 88.6154 106.542 88.7788 106.595 88.7788C106.647 88.7788 106.542 88.6154 106.368 88.4157C106.194 88.216 106.02 88.0526 105.967 88.0526C105.915 88.0526 106.02 88.216 106.194 88.4157Z" fill="#131313"/>
<path d="M44.5161 65.631C44.5161 70.0246 44.5335 71.8038 44.551 69.5707C44.5858 67.3376 44.5858 63.7429 44.551 61.5824C44.5335 59.4219 44.5161 61.2375 44.5161 65.631Z" fill="#EFEFEF"/>
<path d="M91.1753 92.537C91.6283 92.5733 92.3601 92.5733 92.8305 92.537C93.2835 92.5007 92.9002 92.4825 91.9942 92.4825C91.0882 92.4825 90.7049 92.5007 91.1753 92.537Z" fill="#EFEFEF"/>
</g>
<defs>
<clipPath id="clip0_39_58">
<rect width="119" height="124" rx="59.5" fill="white"/>
</clipPath>
</defs>
</svg>
